<svg width="250" height="250" viewBox="0 0 250 250" fill="none" xmlns="http://www.w3.org/2000/svg">
<rect width="250" height="250" fill="#131313"/>
<path d="M119.122 141.6C119.156 142.028 119.252 143.748 119.3 144.488C119.186 143.652 118.999 140.065 119.122 141.6ZM87.75 192.585C87.8102 192.614 87.8712 192.643 87.9328 192.672C88.4648 192.914 88.9975 193.152 89.5339 193.384C89.0442 193.154 88.507 192.898 87.954 192.628C86.2246 191.812 84.8966 190.335 84.1663 189.432C83.9928 189.221 84.4816 189.732 84.0715 189.241C83.9597 189.106 83.887 189.028 83.826 188.968C83.7226 188.861 83.64 188.783 83.5129 188.642C83.3782 188.47 83.2359 188.393 82.8528 187.673C82.7791 187.48 82.6241 187.313 82.5578 186.551C82.5325 186.187 82.6191 185.434 83.1401 184.834C83.655 184.245 84.1966 184.091 84.5147 184.012C85.1622 183.883 85.4426 183.949 85.7289 183.976C86.0035 184.013 86.2306 184.064 86.453 184.119C88.2493 184.578 90.9856 185.265 92.1313 185.519C98.0243 186.873 103.824 187.707 109.357 186.343C103.825 187.393 109.012 186.649 110.823 186.037C110.873 186.022 110.92 186.007 110.962 185.992C111.086 185.943 111.132 185.923 111.636 185.647C112.118 185.34 113.172 184.837 114.79 182.545C116.634 179.427 115.368 182.638 117.751 176.778C115.777 181.242 117.804 176.915 118.802 173.134C118.822 173.06 118.859 172.927 118.908 172.747C119.325 171.495 119.949 166.991 120.097 164.813C120.168 163.977 120.205 162.692 120.277 161.571C120.328 160.799 120.399 160.215 120.468 159.061C120.505 158.451 120.542 157.84 120.582 157.226C120.604 156.779 120.785 155.948 121.474 155.327C122.158 154.724 122.809 154.644 123.194 154.606C123.965 154.564 124.324 154.681 124.687 154.757C125.373 154.927 125.872 155.109 126.365 155.271C127.305 155.594 128.255 155.852 128.63 155.833C130.07 155.863 131.976 154.436 133.637 152.638C133.652 152.623 133.666 152.607 133.681 152.59C133.668 152.609 133.655 152.627 133.642 152.643C132.85 153.564 133.14 153.295 133.706 152.702C134.098 152.355 134.694 151.013 134.728 150.906C134.957 150.387 134.612 151.361 134.238 152.011C133.867 152.658 133.54 152.965 133.988 152.458C135.275 150.574 136.022 147.176 136.71 144.167C136.131 146.697 137.32 140.767 137.564 139.668C137.438 139.919 138.378 135.347 139.253 130.842C139.922 127.43 140.48 124.034 140.613 123.044C140.67 122.567 140.155 125.661 141.246 118.469C141.361 117.69 141.36 117.991 141.415 117.58C141.448 117.335 141.526 115.832 141.815 114.259C141.915 113.684 141.521 117.398 142.557 109.265C142.058 112.22 143.627 100.28 144.061 96.2138C144.106 95.8258 144.137 95.5484 144.164 95.3116C144.122 95.6205 144.083 95.8981 144.04 96.2115C144.008 96.4348 143.976 96.6647 143.942 96.9009C143.974 96.6451 144.003 96.4164 144.028 96.2102C144.269 94.18 144.256 93.7673 144.303 93.229C144.359 92.5484 144.419 91.7747 144.438 91.0558C144.442 90.883 144.444 90.7058 144.44 90.5549C144.44 90.4166 144.415 90.2428 144.434 90.3412C144.443 90.3719 144.451 90.4317 144.527 90.6057C144.582 90.7161 144.607 90.7984 144.807 91.0487C144.909 91.1666 145.001 91.2691 145.219 91.4236C145.434 91.5725 145.717 91.702 146.029 91.7593C146.346 91.8202 146.671 91.7958 146.91 91.7361C147.129 91.6829 147.298 91.606 147.428 91.5336C147.659 91.4022 147.768 91.2943 147.834 91.2314C147.969 91.0954 147.991 91.0501 148.011 91.0224C148.058 90.9425 147.966 91.0987 147.907 91.2314C147.611 91.8055 147.507 92.7449 147.441 93.6147C147.309 96.098 147.415 96.1288 147.388 99.1611C147.401 98.4346 147.417 97.718 147.441 97.0045C147.423 99.0517 147.456 101.117 147.504 103.203C147.505 103.239 147.506 103.275 147.506 103.31C147.505 103.274 147.503 103.238 147.501 103.203C147.357 100.026 147.416 101.677 147.477 103.204C147.507 103.921 147.539 104.632 147.543 104.756C147.566 105.384 147.493 104.489 147.531 105.531C147.535 105.636 147.572 105.489 147.63 107.097C147.758 110.47 147.689 109.943 147.744 111.359C147.75 111.487 147.768 111.038 147.878 113.485C148.243 121.269 147.844 113.447 147.829 113.147C147.809 112.756 147.745 115.435 147.549 108.814C147.612 111.034 147.552 111.263 147.56 111.511C147.566 111.739 147.736 115.581 147.749 115.796C147.857 117.686 147.832 116.02 147.857 116.388C147.876 116.693 148.025 121.331 148.227 122.412C148.2 124.638 148.037 121.142 147.85 117.421C147.796 116.876 147.957 120.967 147.969 121.182C148.224 126.454 148.195 123.53 148.322 124.679C148.389 125.282 148.422 127.435 148.422 125.446C148.677 130.231 148.471 127.332 148.478 127.641C148.489 128.108 148.606 129.781 148.613 129.991C148.624 130.299 148.532 129.23 148.585 130.445C148.594 130.647 148.758 132.595 148.652 130.076C148.824 133.444 148.862 133.16 148.823 134.31C149.147 136.617 148.804 135.993 148.846 136.911C148.959 139.34 149.071 138.626 149.085 138.753C149.141 139.245 149.276 141.575 149.415 143.802C149.525 145.561 149.647 147.268 149.713 147.985C149.61 147.583 149.474 145.509 149.383 143.804C149.331 142.862 149.287 142.021 149.256 141.645C149.064 139.308 149.242 142.353 149.295 143.81C149.321 144.523 149.315 144.856 149.216 144.033C149.323 145.093 149.434 146.137 149.551 147.19C149.616 149.117 149.338 146.401 149.821 151.576C149.968 152.419 149.491 147.913 149.631 148.814C149.703 149.339 149.979 152.337 150.009 152.403C150.032 152.449 149.763 149.754 149.836 150.176C149.941 151.116 150.979 160.935 150.108 153.47C150.327 155.566 150.305 156.639 150.598 158.442C150.827 159.568 149.955 153.129 151.524 162.759C151.467 162.993 150.819 158.94 150.823 158.817C150.793 158.664 150.747 159.442 150.758 159.565C150.8 159.737 151.429 164.84 152.722 167.155C152.868 167.38 152.982 167.461 153.106 167.522C153.23 167.582 153.407 167.615 153.609 167.614C153.91 167.61 154.157 167.581 154.333 167.558C154.02 167.55 155.392 167.44 156.89 166.389C158.395 165.394 159.841 163.674 160.101 163.331C160.243 163.149 159.645 163.776 159.8 163.583C160.809 162.457 163.248 158.901 164.184 157.084C165.262 155.08 165.066 155.299 165.129 155.189C165.583 154.292 165.252 155.025 165.526 154.474C165.982 153.673 168.589 147.774 168.679 147.454C168.714 147.364 168.258 148.32 168.789 147.011C168.854 146.85 168.875 146.89 169.419 145.575C169.638 145.044 169.939 144.276 170.306 143.138C171.729 138.504 169.173 146.301 169.723 144.361C170.838 141.469 170.639 141.501 170.885 140.695C170.965 140.416 171.603 138.321 171.985 135.956C171.715 137.652 171.369 139.329 170.934 140.975C171.415 139.372 172.029 136.154 172.225 134.772C172.327 134.098 172.325 134.669 172.509 133.196C172.53 132.88 172.577 131.637 172.099 135.477C171.996 135.773 172.314 133.963 172.39 133.107C172.402 132.977 172.37 132.463 172.532 131.38C172.524 131.113 172.752 134.013 172.906 126.604C172.907 126.367 172.847 127.191 172.846 126.959C172.852 126.803 172.899 124.914 172.889 124.697C172.885 124.482 172.84 125.402 172.834 125.146C172.804 123.834 172.94 122.124 172.94 124.817C172.963 123.915 172.972 123.012 172.966 122.111C172.875 123.085 172.901 120.69 172.816 119.447C172.161 111.466 172.506 116.821 172.356 115.455C172.043 113.274 172.47 114.914 171.953 111.685C171.931 111.555 172.025 112.308 172.023 112.417C172.023 112.47 171.998 112.33 171.924 111.861C171.847 111.395 171.708 110.393 171.461 109.285C171.489 109.37 171.493 109.292 171.299 109.112C171.477 109.268 171.503 109.373 171.472 109.281C171.575 109.675 171.717 110.447 171.819 111.054C171.825 110.787 171.673 109.838 171.52 109.268C171.554 109.364 171.463 109.197 171.268 109.055C171.081 108.909 170.872 108.793 170.83 108.767C170.693 108.684 170.56 108.612 170.44 108.552C170.362 108.51 170.052 108.42 169.9 108.387C169.723 108.347 169.601 108.322 169.418 108.291C169.05 108.237 168.459 108.123 166.41 108.049C166.013 108.035 165.143 107.975 164.278 107.975C160.689 107.964 169.029 108.106 169.055 108.341C169.353 108.184 160.402 107.992 160.062 108.051C158.744 108.007 164.158 108.02 163.122 107.968C162.892 107.936 157.509 107.978 152.95 108.101C150.566 108.13 148.586 108.585 147.705 108.79C144.93 109.462 143.599 109.798 143.639 109.951C142.793 110.044 142.128 110.388 141.761 110.51C137.39 111.99 137.386 112.013 133.642 113.382C133.371 113.482 133.108 113.573 132.865 113.655C132.394 113.812 132.004 113.933 131.807 114.011C131.64 114.078 131.966 114.017 131.151 114.334C129.999 114.775 123.029 117.325 122.501 117.497C121.972 117.663 125.427 116.381 124.794 116.566C122.287 117.502 119.907 118.417 117.391 119.37C116.346 119.766 116.869 119.529 116.418 119.701C116.23 119.771 112.634 121.18 112.794 121.134C113.159 121.017 124.279 116.769 121.37 117.941C120.815 118.163 118.783 118.848 119.137 118.818C109.186 122.579 99.2599 126.404 89.3576 130.295C95.0134 127.978 101.448 125.536 107.416 123.224C108.235 122.906 111.006 121.849 110.652 121.933C105.565 123.875 99.2673 126.35 94.3882 128.232C94.2313 128.293 94.7894 128.026 94.2011 128.249C93.1103 128.662 89.5833 130.131 88.984 130.349C88.8748 130.387 90.8796 129.532 90.251 129.74C88.6326 130.277 88.3161 130.63 86.9612 131.166C86.5304 131.336 85.1053 131.884 83.4453 132.532C81.0244 133.476 78.1696 134.62 77.1567 135.082C75.3335 135.903 82.3218 133.011 81.8214 133.284C77.1484 135.262 72.1321 137.124 68.167 139.241C68.1048 139.278 68.6947 138.989 67.8654 139.474C67.5656 139.655 67.3225 139.812 67.0964 139.959C66.8848 140.096 66.7038 140.215 66.5657 140.308C66.4999 140.351 66.432 140.4 66.4395 140.391C66.4433 140.386 66.4547 140.377 66.5102 140.323C66.5482 140.279 66.5363 140.317 66.7245 140.072C66.805 139.939 66.9649 139.794 67.0891 139.205C67.1031 139.146 67.1785 138.65 67.0155 138.183C66.8683 137.695 66.4563 137.23 66.0904 137.026C65.3328 136.622 64.9976 136.741 64.7954 136.738C64.5145 136.774 64.461 136.804 64.3864 136.825C64.3211 136.847 64.2975 136.858 64.2872 136.862C64.2613 136.874 64.2532 136.878 64.2531 136.879C64.3733 136.837 64.694 136.675 64.9827 136.515C65.8081 136.07 68.799 134.26 69.2077 134.036C69.258 134.01 68.6751 134.435 68.594 134.485C67.3242 135.281 66.7943 135.499 66.6862 135.562C66.2378 135.825 65.8256 136.103 65.419 136.336C65.0953 136.521 64.8283 136.664 64.5622 136.8C64.5027 136.83 64.4265 136.869 64.3715 136.895C64.3298 136.917 64.2003 136.97 64.3388 136.911C64.3805 136.896 64.4366 136.872 64.5922 136.837C64.632 136.829 64.6793 136.82 64.7394 136.811C64.7413 136.812 64.8659 136.791 65.0338 136.793C65.2041 136.799 65.4478 136.806 65.8176 136.96C66.1768 137.101 66.6913 137.517 66.9019 138.066C67.1277 138.587 67.0361 139.152 67.0211 139.21C66.958 139.535 66.866 139.705 66.8 139.829C66.6631 140.068 66.5868 140.139 66.5336 140.202C66.5026 140.236 66.4863 140.252 66.4693 140.269C66.4371 140.301 66.4191 140.317 66.4079 140.327C66.3774 140.354 66.4028 140.333 66.4265 140.316C66.4818 140.275 66.5636 140.217 66.6579 140.151C67.124 139.833 66.7604 140.031 67.0208 139.845C67.057 139.82 67.1053 139.787 67.1696 139.745C67.3301 139.587 69.5524 138.53 69.7609 138.316C69.7793 138.314 68.5465 138.806 67.0022 139.817C66.7741 139.967 66.4807 140.167 66.3451 140.271C66.3424 140.271 66.3151 140.303 66.4306 140.19C66.4493 140.158 66.5183 140.147 66.7426 139.762C66.7977 139.656 66.8674 139.515 66.9231 139.277C66.9366 139.217 66.9488 139.151 66.9576 139.078C66.9693 138.993 66.9819 138.791 66.9579 138.607C66.922 138.227 66.6995 137.729 66.3681 137.424C65.6648 136.808 65.1744 136.892 64.954 136.876C64.8282 136.88 64.7596 136.892 64.7494 136.893C64.7251 136.897 64.7031 136.9 64.6828 136.903C64.3833 136.963 64.3538 136.998 64.3373 137C64.2714 137.029 64.3571 136.991 64.4061 136.965C64.5237 136.905 64.6794 136.82 64.8147 136.746C65.4247 136.407 66.0619 136.035 66.7451 135.633C68.1234 134.821 69.5534 133.959 71.0188 133.07C73.9199 131.31 76.7701 129.553 78.7018 128.356C79.7894 127.682 80.6307 127.156 80.9311 126.963C80.2079 127.404 79.4049 127.893 78.6855 128.33C77.7837 128.878 76.9271 129.397 76.0518 129.928C76.9083 129.411 77.7861 128.869 78.6766 128.315C81.1455 126.78 83.3357 125.386 83.6169 125.343C95.7939 117.781 107.959 110.14 120.058 102.441C122.225 101.072 121.092 101.913 124.629 99.6165C123.695 100.177 122.759 100.739 121.826 101.299C123.661 100.158 131.737 95.0199 133.021 94.1602C133.188 94.0487 133.38 93.8217 135.377 92.5182C137.16 91.3537 137.47 91.2295 138.434 90.6169C139.236 90.1069 140.119 89.5099 140.361 89.3558C140.545 89.2392 140.64 89.2253 141.079 88.9464C142.46 88.0674 141.282 88.7046 142.728 87.9112C142.399 88.1333 142.058 88.3627 141.734 88.5814C143.422 87.4983 145.695 86.0701 143.281 87.694C142.864 87.9741 143.204 87.7044 142.89 87.9107C130.568 95.9625 140.471 89.6102 144.73 86.7265C145.452 86.2955 148.213 84.4693 150.157 83.1631C151.305 82.3923 152.123 81.8373 152.217 81.779C152.513 81.5988 151.477 82.3542 152.89 81.4478C153.195 81.2786 161.31 75.6257 158.424 77.7175C157.842 78.1497 153.907 80.8289 152.968 81.4602C155.272 80.0637 160.346 76.324 160.924 75.9065C163.255 74.2827 156.502 79.1576 161.766 75.4567C165.793 72.5803 161.975 75.2236 163.497 74.0852C164.367 73.4558 168.874 70.1894 168.681 70.1677C170.185 68.984 169.336 69.7203 169.526 69.5786C169.722 69.4446 172.612 67.0782 173.528 66.285C173.641 66.1908 173.33 66.5407 173.449 66.4444C173.698 66.274 176.313 63.8407 176.387 63.7186C176.45 63.6524 175.808 64.2087 176.046 63.957C176.236 63.764 177.312 62.6842 178.059 61.8593C178.461 61.4211 178.77 61.0723 178.81 61.0203C178.871 60.9385 178.507 61.3433 178.042 61.8432C177.281 62.6703 176.248 63.6937 176.528 63.3594C176.968 62.9229 177.481 62.3829 178.003 61.8078C179.127 60.5806 180.223 59.2328 180.713 58.5332C180.547 58.7903 179.359 60.2304 178.909 60.7149C179.097 60.4422 181.566 57.3297 180.779 58.4382C181.269 57.7294 180.9 58.1875 181.159 57.7784C181.231 57.6744 181.919 56.6773 182.027 56.4685C182.046 56.4456 181.318 57.4605 181.443 57.2427C181.72 56.8963 183.594 53.6988 183.724 53.3896C184.159 52.6339 182.722 55.3645 182.606 55.5749C182.605 55.6264 183.934 53.379 183.95 53.3311C184.093 53.242 182.638 55.763 182.845 55.4941C183.219 54.8868 183.577 54.2624 183.93 53.6239C182.788 56.2278 179.673 60.1561 178.744 61.1836C181.612 58.1318 183.605 54.4164 183.748 54.4698C183.812 54.5107 182.957 56.0756 183 56.0189C183.202 55.8417 184.349 53.6266 184.386 53.5361C184.425 53.4699 184.444 53.4401 184.448 53.4417C184.448 53.4417 184.448 53.4417 184.448 53.4417C184.497 53.4813 182.785 56.5847 182.67 56.7116C182.54 56.9812 183.467 55.71 183.482 55.7186C183.478 55.7828 182.14 57.9118 182.639 57.2249C183.169 56.5478 184.264 54.6105 184.299 54.5363C184.553 54.1967 182.61 57.5623 182.512 57.6322C182.497 57.6974 183.657 55.9669 183.687 55.9113C183.732 55.8775 182.935 57.2508 182.609 57.7861C182.375 58.1926 183.158 57.0792 183.027 57.2794C182.983 57.4562 180.758 60.4008 180.607 60.5188C180.439 60.7322 181.028 60.0936 180.955 60.1957C180.856 60.3453 180.062 61.2488 180.175 61.1388C180.311 61.099 183.261 57.5056 183.212 57.5004C183.28 57.609 180.218 61.5006 183.134 57.9256C183.158 57.9025 183.753 56.95 183.767 56.9219C184.168 56.352 182.35 59.4745 184.622 55.6878C180.251 62.6467 184.206 56.6387 183.633 57.7132C183.446 58.1585 181.512 60.722 181.483 60.7183C181.725 60.5145 182.33 59.6868 182.557 59.4223C182.702 59.2935 180.936 61.5609 181.369 61.0813C181.622 60.8598 183.474 58.4149 183.519 58.29C184.224 57.2994 183.427 58.5594 183.594 58.3509C183.72 58.2209 184.71 56.6488 184.726 56.6035C184.789 56.5466 183.496 58.7187 183.18 59.1441C182.962 59.4823 183.855 58.2688 183.699 58.5006C182.803 59.9455 180.399 62.5998 182.704 60.028C182.847 59.8717 183.617 58.808 183.635 58.7734C184.145 58.1374 182.746 60.1157 182.49 60.462C182.089 61.094 184.185 58.3135 182.451 60.6333C183.826 58.9573 184.53 57.9235 185.751 55.7147C184.089 58.8051 182.529 60.6795 182.251 61.1116C181.917 61.519 182.974 60.6511 185.073 57.2947C183.739 59.4176 183.917 59.2134 183.489 59.8275C183.238 60.2376 180.838 62.9267 182.071 61.8065C182.234 61.6792 183.581 59.9181 183.195 60.4971C179.821 64.5674 183.171 60.6364 183.163 60.6085C183.188 60.6596 182.009 62.1972 180.358 63.975C177.726 66.9517 173.519 70.3297 172.475 71.163C170.529 72.7408 168.784 74.1649 168.359 74.4836C166.918 75.5546 168.08 74.6275 167.748 74.8504C167.405 75.0972 163.364 78.1393 163.131 78.2858C162.326 78.8289 163.096 78.2094 163.011 78.2655C162.004 78.9521 156.426 82.8695 154.832 83.9166C154.892 83.927 158.075 81.7605 156.13 83.164C153.876 84.7854 153.623 84.7391 153.567 84.7689C153.041 85.1232 152.504 85.4838 151.956 85.8509C141.904 92.57 131.72 99.1183 121.53 105.624C121.715 105.619 128.69 101.074 128.857 100.978C129.832 100.446 117.983 108.018 116.503 108.909C117.622 108.222 118.736 107.537 119.854 106.85C118.023 108.142 113.767 110.681 111.055 112.451C110.181 113.022 111.898 111.985 111.865 112.008C110.892 112.674 109.288 113.65 110.446 112.852C108.043 114.434 108.379 114.152 106.506 115.328C106.41 115.388 107.231 114.922 105.769 115.864C105.085 116.306 101.393 118.63 100.926 118.967C100.73 119.109 102.686 118.077 102.846 117.806C106.883 115.347 104.094 116.943 105.648 115.968C105.886 115.819 105.381 116.234 109.277 113.729C108.613 114.321 104.034 117.08 103.275 117.578C101.695 118.615 108.32 114.531 109.457 113.677C108.952 114.129 109.936 113.392 111.398 112.473C113.004 111.463 112.326 111.932 113.19 111.384C115.56 109.884 114.537 110.437 116.527 109.259C114.504 110.281 119.855 107.111 121.414 106.185C118.934 107.779 116.453 109.369 113.968 110.957C114.117 110.877 114.266 110.796 114.414 110.716C113.757 111.131 113.103 111.543 112.445 111.958C112.545 111.881 112.645 111.805 112.743 111.729C109.399 113.932 108.526 114.385 108.252 114.557C104.7 116.789 100.582 119.38 96.9844 121.634C96.4484 121.97 96.8524 121.805 92.8844 124.219C91.6209 124.988 92.7844 124.194 91.3571 125.096C89.6521 126.341 89.6306 126.21 89.0923 126.545C87.5838 127.486 86.6535 128.109 86.5204 128.193C84.9199 129.195 82.6991 130.569 80.8001 131.747C80.4515 131.963 80.1216 132.168 79.8138 132.359C79.7755 132.383 80.8698 131.763 79.5305 132.574C79.0403 132.87 74.7188 135.309 71.0156 137.625C71.9862 137.054 72.9857 136.462 73.9452 135.891C72.8434 136.582 64.7363 141.426 66.7348 140.3C68.0349 139.618 70.8965 137.732 71.2749 137.649C70.796 137.931 69.9676 138.428 68.887 139.068C68.3478 139.387 67.7531 139.739 67.0883 140.118C66.9357 140.204 66.7562 140.305 66.5679 140.408C66.4793 140.457 66.3796 140.51 66.2766 140.564C66.1589 140.621 66.1025 140.663 65.7897 140.788C65.7164 140.814 65.6341 140.846 65.4639 140.884C65.4205 140.894 65.3705 140.903 65.3092 140.912C65.2939 140.914 65.2778 140.916 65.261 140.918C65.2102 140.924 65.1451 140.93 65.0697 140.932C64.9176 140.934 64.7121 140.935 64.3928 140.841C64.0857 140.751 63.6025 140.505 63.2718 140.011C62.9345 139.522 62.8839 138.939 62.9269 138.613C62.9713 138.246 63.0682 138.045 63.1386 137.898C63.436 137.373 63.5112 137.392 63.5509 137.331C63.6 137.282 63.6381 137.248 63.6725 137.217C63.7799 137.123 63.8464 137.073 63.8995 137.032C64.0198 136.94 64.1099 136.876 64.2028 136.81C64.3896 136.678 64.5686 136.557 64.7497 136.436C70.4712 132.993 77.3926 130.655 78.2124 130.232C78.3818 130.168 77.3525 130.631 77.5897 130.54C77.7667 130.469 81.4084 128.985 81.9083 128.804C82.1968 128.698 80.5931 129.369 80.7337 129.329C80.7762 129.315 81.2667 129.122 81.966 128.844C83.3695 128.286 85.4842 127.441 85.6548 127.337C84.553 127.795 81.3782 129.046 83.0246 128.341C83.2375 128.25 84.3428 127.845 84.6033 127.734C86.0221 127.129 83.9998 127.921 81.9284 128.75C80.5523 129.301 79.156 129.868 78.7225 130.044C79.69 129.637 80.7516 129.2 81.9195 128.728C86.0984 127.038 91.2859 125.036 95.3604 123.406C97.4821 122.621 92.2588 124.69 94.6581 123.788C99.6265 121.923 95.9577 123.217 96.1034 123.154C97.3152 122.633 101.584 121.218 101.526 121.055C103.327 120.384 102.755 120.628 105.281 119.627C104.944 119.744 104.605 119.862 104.268 119.98C107.044 118.794 113.093 116.746 112.655 116.936C111.471 117.444 108.341 118.561 108.076 118.666C107.685 118.82 106.665 119.399 102.319 120.915C100.605 121.704 109.145 118.359 105.282 119.939C107.902 118.904 118.766 114.836 120.309 114.206C120.493 114.13 119.585 114.345 122.288 113.39C123.571 112.937 120.499 114.097 121.093 113.902C121.83 113.661 126.231 112.001 131.551 110.057C139.252 107.194 149.347 103.728 152.861 104.173C152.894 104.172 152.926 104.171 152.957 104.17C153.28 104.163 153.163 104.202 153.478 104.195C154.443 104.171 157.982 104.044 159.727 104.047C156.116 104.024 163.123 103.917 164.944 104.002C167.698 104.098 167.533 104.183 168.754 104.301C169.732 104.444 170.687 104.439 172.198 105.111C173.205 105.683 174.543 106.298 175.204 108.251C176.017 111.854 176.31 115.168 176.409 117.369C176.571 117.169 176.73 123.501 176.595 126.378C176.555 128.638 176.394 131.917 176.651 128.87C176.441 132.773 175.921 136.888 175.055 140.496C174.91 141.092 175.074 140.263 174.822 141.279C174.798 141.37 174.811 141.509 174.574 142.378C173.507 146.088 173.027 146.877 172.977 147.016C172.955 147.053 172.955 147.034 172.958 147.008C172.962 146.973 172.97 146.928 172.933 146.998C172.911 147.04 172.873 147.122 172.807 147.277C172.507 147.976 172.29 148.484 172.129 148.865C172.385 148.245 172.644 147.609 172.896 146.983C174.315 143.502 175.098 139.87 175.318 138.779C175.115 139.541 174.18 143.798 172.865 146.971C172.338 148.293 171.857 149.456 171.566 150.121C171.533 150.198 171.601 149.91 171.567 149.988C171.566 149.99 171.566 149.991 171.565 149.993C171.244 150.834 168.836 156.101 169.383 155.042C169.537 154.761 170.685 152.347 171.89 149.44C171.569 150.232 171.868 149.666 171.812 149.806C171.15 151.5 169.238 155.566 168.479 156.981C168.312 157.306 168.355 157.299 168.328 157.353C167.645 158.644 167.839 158.066 167.209 159.432C165.837 161.699 169.527 155.049 169.148 155.468C169.018 155.631 167.219 159.532 164.797 163.13C162.506 166.81 158.816 169.677 158.794 169.628C158.732 169.654 158.507 169.793 158.035 170.042C157.465 170.355 155.627 171.254 153.716 171.278C151.937 171.426 150.326 170.146 150.056 169.747C149.922 169.595 149.896 169.72 149.741 169.519C149.703 169.469 149.62 169.357 149.514 169.188C148.419 167.686 147.506 162.923 147.172 161.014C147.344 162.154 147.544 163.314 147.793 164.463C146.442 157.543 146.78 158.621 147.056 160.926C147.074 161.038 147.089 161.15 147.107 161.263C147.363 163.046 147.888 165.362 147.907 165.41C147.617 165.501 145.945 153.806 146.384 156.054C146.404 156.362 147.122 161.772 146.807 159.087C146.739 158.62 146.302 155.144 146.3 154.973C146.179 153.747 147.2 161.309 147.176 160.369C146.827 158.551 146.568 156.169 146.338 154.086C146.231 153.114 146.164 152.907 146.15 152.783C145.971 151.02 146.116 152.009 146.061 151.417C146.025 151.106 145.633 147.628 145.839 148.281C145.669 146.331 145.564 144.983 145.491 144.057C145.324 141.927 145.337 142.381 145.438 144.06C145.548 145.879 145.777 149.12 146.065 152.142C145.815 150.087 145.536 146.173 145.397 144.063C145.387 143.911 145.377 143.768 145.367 143.635C145.318 142.939 145.293 143.348 145.209 142.176C145.022 139.75 144.437 128.169 144.311 125.152C144.422 127.004 144.449 126.459 144.374 125.03C144.299 123.6 144.286 124.805 144.264 124.526C144.237 124.228 143.954 117.513 143.9 116.399C144.154 121.451 144.155 120.307 143.97 116.019C144.013 116.637 144.056 117.26 144.1 117.877C143.961 115.364 143.83 110.068 143.757 108.621C143.745 108.395 143.729 109.209 143.722 109.083C143.654 107.86 143.57 103.803 143.552 103.303C143.551 103.282 143.55 103.267 143.549 103.259C143.547 103.233 143.545 103.253 143.543 103.304C143.533 103.573 143.538 104.844 143.505 104.257C143.502 104.195 143.502 103.823 143.5 103.305C143.496 102.578 143.49 101.567 143.465 100.553C143.45 99.8902 143.412 100.291 143.408 100.125C143.373 98.7402 143.441 99.573 143.434 97.0319C143.485 95.1283 143.257 93.8958 143.836 90.926C143.116 95.2114 143.413 95.6053 143.357 94.8835C143.441 94.0874 143.237 91.9417 144.223 89.5723C144.32 89.3607 144.413 89.1499 144.592 88.8558C144.709 88.6936 144.746 88.5429 145.203 88.1603C145.323 88.0702 145.51 87.9362 145.825 87.8339C146.115 87.7261 146.699 87.6951 147.111 87.8703C147.321 87.9499 147.51 88.0689 147.644 88.1787C147.76 88.2729 147.853 88.3694 147.928 88.4607C148.089 88.6627 148.133 88.7569 148.193 88.8727C148.353 89.2155 148.363 89.331 148.395 89.4379C148.422 89.5481 148.438 89.6239 148.453 89.6969C148.484 89.8535 148.509 90.0048 148.531 90.2351C148.572 90.7178 148.59 91.5153 148.445 93.2188C148.534 86.1098 148.443 94.182 148.051 96.6368C148.031 96.8304 148.013 97.0008 147.998 97.1356C147.986 97.2405 147.932 97.2643 147.83 98.1823C147.821 98.2643 147.87 98.1445 147.778 98.9982C146.875 107.02 147.428 101.888 147.216 103.405C147.127 104.052 146.695 107.952 146.559 108.999C146.529 109.239 146.507 109.128 146.388 110.058C146.177 111.707 146.018 113.19 145.874 114.278C145.856 114.406 145.801 114.402 145.534 116.467C145.458 117.047 145.387 117.701 145.519 116.88C145.959 114.157 146.548 108.967 146.98 105.877C147.382 103.063 146.272 111.956 146.197 112.413C146.175 112.583 146.376 110.845 146.137 112.606C145.933 114.109 145.657 116.873 145.312 119.11C145.286 119.281 144.941 121.058 144.948 120.976C144.957 120.898 145.336 118.15 145.254 118.544C145.245 118.591 144.993 120.339 144.941 120.563C144.878 120.842 144.552 121.558 144.49 121.933C144.333 122.888 144.476 122.272 144.379 122.889C144.178 124.218 143.364 128.805 143.403 128.969C143.539 128.204 143.67 127.448 143.798 126.691C143.101 130.923 143.427 129.118 143.341 129.724C143.243 130.363 143.212 130.189 142.959 131.527C142.954 131.551 142.949 131.576 142.945 131.602C142.889 131.909 141.795 137.836 141.839 137.726C142.414 134.458 142.266 135.669 142.295 135.524C142.407 134.959 142.501 134.205 142.643 133.446C142.818 132.511 142.929 131.926 143.006 131.536C143.18 130.644 143.127 131.033 143.051 131.544C142.967 132.097 142.86 132.773 142.968 132.233C143.004 132.055 143.045 131.803 143.085 131.55C143.142 131.19 143.194 130.828 143.215 130.714C143.332 130.104 143.383 130.107 143.451 129.694C143.607 128.743 143.343 129.837 143.351 129.764C143.461 128.907 144.064 125.586 143.8 127.672C144.034 126.432 143.962 126.271 144.157 125.288C144.541 123.341 144.061 126.272 143.939 127.075C143.66 128.948 143.479 129.961 143.18 131.568C143.02 132.423 142.834 133.416 142.579 134.808C142.313 136.254 142.034 137.97 141.906 138.645C141.832 139.071 140.875 143.033 141.09 143.203C140.744 144.752 140.034 147.166 139.593 148.784C139.193 150.237 139.399 149.807 139.366 149.942C139.32 150.148 138.731 151.924 138.453 152.554C138.139 153.281 138.382 152.933 137.751 154.105C137.413 154.693 137.052 155.167 136.712 155.526C135.678 156.602 135.603 156.548 135.427 156.716C132.608 159.045 133.837 158.071 133.181 158.587C132.927 158.697 131.395 159.964 128.692 160.052C127.132 160.036 126.004 159.573 124.954 159.238C124.446 159.067 123.949 158.9 123.629 158.83C123.49 158.788 123.334 158.814 123.604 158.788C123.73 158.769 124.107 158.677 124.425 158.314C124.734 157.951 124.767 157.625 124.777 157.5C124.714 158.485 124.668 159.299 124.648 159.739C124.677 158.988 124.706 158.239 124.738 157.498C124.73 157.579 124.717 157.688 124.649 157.863C124.713 157.686 124.722 157.577 124.726 157.497C124.595 158.877 124.59 160.299 124.489 160.319C124.639 160.623 124.327 163.645 124.25 164.561C124.222 164.921 124.252 164.895 124.214 165.347C124.093 167.106 123.547 171.117 123.318 172.112C122.6 176.364 124.58 165.566 124.43 164.783C124.489 166.398 122.795 176.087 123.7 171.64C123.844 170.948 123.95 169.73 123.997 169.348C124.303 166.768 124.116 168.801 124.148 168.601C124.205 168.257 124.324 166.56 124.37 166.118C124.383 165.971 124.367 166.927 124.576 164.493C124.604 165.676 123.705 172.585 123.312 173.581C123.262 173.788 123.493 173.086 123.285 173.923C123.15 174.419 122.877 175.507 122.06 177.71C122.094 177.647 122.128 177.585 122.162 177.523C121.033 180.702 119.671 183.886 117.254 186.745C117.508 186.422 118.752 184.775 117.11 186.804C116.073 187.934 116.889 187.144 116.797 187.247C116.515 187.452 115.258 189.271 112.048 190.296C105.048 193.045 92.3666 190.296 89.6889 189.561C88.7457 189.343 86.6314 188.849 85.3543 188.546C85.1754 188.502 85.0542 188.503 85.1894 188.511C85.2579 188.511 85.4159 188.513 85.6808 188.432C85.9367 188.363 86.3037 188.133 86.461 187.972C86.8109 187.668 87.0876 187.075 87.1174 186.677C87.1604 186.269 87.0956 186.05 87.0605 185.914C86.9774 185.649 86.9444 185.638 86.9495 185.638C86.9608 185.66 87.0878 185.832 87.2504 186.02C88.185 187.162 89.0284 188.11 89.9449 188.534C91.1515 189.127 92.1902 189.598 92.6037 189.778C93.2877 190.074 92.6599 189.745 93.2669 190.012C93.8332 190.257 93.2259 190.049 93.3939 190.123C94.4937 190.856 104.758 194.219 106.356 192.24C106.536 192.137 106.701 192.035 106.832 191.951C106.717 192.026 106.551 192.133 106.359 192.246C105.749 192.685 103.959 193.061 102.135 192.831C100.344 192.647 98.7714 192.177 98.8427 192.222C98.8776 192.253 100.747 192.75 101.131 192.776C101.768 192.961 103.926 193.041 104.87 192.843C104.925 192.835 104.848 192.867 104.973 192.865C105.089 192.853 105.461 192.85 106.171 192.535C106.247 192.499 106.341 192.451 106.443 192.389C107.153 191.978 108.399 191.002 109.566 189.829C111.794 188.431 117.311 176.972 117.679 173.217C117.788 172.743 117.856 172.424 117.877 172.297C117.879 172.28 117.738 172.845 117.639 173.207C117.555 173.512 117.504 173.669 117.605 173.199C117.618 173.135 117.635 173.06 117.654 172.973C118.081 170.966 117.811 172.789 118.339 170.47C118.493 170.125 119.53 163.659 119.463 163.437C119.617 161.459 118.904 167.131 118.852 167.04C118.905 166.845 119.475 162.141 119.456 161.941C119.48 161.755 119.234 165.628 119.602 160.982C119.551 161.512 119.495 162.045 119.432 162.576C119.603 160.39 119.662 160.184 119.702 159.649C119.804 157.996 119.757 156.195 119.874 153.515C119.904 152.806 119.953 153.981 119.957 153.89C120.002 153.047 119.858 151.948 119.917 150.666C119.915 150.573 120.086 153.563 119.896 148.33C119.903 148.695 119.908 149.046 119.913 149.41C119.887 148.992 119.796 147.033 119.686 145.325C119.607 144.078 119.532 142.931 119.516 142.639C119.392 140.53 119.58 142.369 119.431 140.252C119.434 141.617 118.982 135.187 119.084 135.553C118.924 134.662 118.607 129.196 118.42 126.627C118.303 125.007 118.017 121.704 117.984 121.188C117.944 120.563 118.024 120.745 117.956 119.613C117.936 119.286 117.639 115.925 117.493 112.952C117.465 112.385 117.49 111.157 117.596 112.23C117.776 114.054 117.938 117.511 118.002 117.463C118.07 117.408 117.686 112.755 117.607 111.503C117.238 105.717 117.553 109.057 117.564 108.899C117.592 108.511 117.372 105.346 117.369 105.215C117.354 104.667 117.551 106.903 117.588 106.936C117.634 106.973 117.509 103.921 117.57 104.611C117.657 105.602 117.785 108.405 117.801 108.588C118.008 110.892 117.886 107.717 117.877 106.841C117.874 106.574 117.973 107.633 117.962 107.411C117.801 104.055 117.768 106.712 117.632 104.481C117.514 102.499 117.749 105.04 117.749 104.976C117.747 104.901 117.668 103.679 117.626 102.856C117.607 102.503 117.595 102.226 117.595 102.118C117.595 102.077 117.622 102.365 117.667 102.853C117.809 104.429 118.15 108.056 118.182 107.844C118.054 106.177 117.929 104.506 117.811 102.844C117.79 102.534 117.768 102.23 117.748 101.933C117.775 101.871 117.81 102.281 117.846 102.842C117.898 103.64 117.952 104.729 117.969 104.91C118.025 105.502 117.953 103.841 117.983 103.919C118 103.944 118.185 105.891 118.091 104.134C118.077 103.865 118.037 103.413 117.994 102.832C117.943 102.137 117.886 101.257 117.845 100.087C117.93 101.312 117.996 102.181 118.047 102.829C118.248 105.317 118.178 103.792 118.137 102.823C118.123 102.495 118.113 102.235 118.116 102.188C118.12 102.115 118.156 102.468 118.192 102.82C118.243 103.315 118.293 103.787 118.236 102.817C118.215 102.457 118.184 101.966 118.134 101.188C118.272 100.983 118.187 101.294 118.292 102.531C118.302 102.654 118.311 102.745 118.318 102.812C118.351 103.122 118.348 102.85 118.356 102.809C118.357 102.803 118.358 102.802 118.36 102.809C118.374 102.862 118.41 103.455 118.575 106.125C118.603 105.921 118.5 104.194 118.418 102.805C118.364 101.893 118.319 101.15 118.315 101.055C118.307 100.846 118.404 101.853 118.393 101.492C118.273 97.2622 118.386 100.159 118.4 98.9378C118.398 98.8246 118.215 94.8285 118.393 97.8759C118.515 99.9094 118.609 101.53 118.686 102.788C118.818 104.917 118.909 106.074 119.082 106.638C119.024 105.386 118.941 104.058 118.855 102.777C118.658 99.8707 118.444 97.2036 118.4 96.3506C118.302 94.4464 118.442 96.4083 118.443 96.1786C118.442 96.0933 118.361 94.4538 118.365 94.4332C118.449 93.4457 118.642 99.3001 118.863 102.777C118.9 103.409 118.938 103.989 118.97 104.403C118.953 103.866 118.935 103.303 118.919 102.773C118.914 102.597 118.909 102.424 118.904 102.252C118.915 102.423 118.926 102.597 118.937 102.772C118.988 103.557 119.043 104.368 119.097 105.164C118.841 100.532 119.103 105.012 119.314 106.145C119.362 106.406 119.103 103.364 119.422 106.825C119.266 104.268 119.347 105.08 119.16 102.778C119.212 102.829 119.622 108.029 119.799 110.077C119.41 103.821 119.429 106.04 119.239 102.753C119.209 102.215 119.176 101.555 119.138 100.702C119.001 99.541 119.198 102.53 119.173 102.286C119.08 101.415 119.01 99.3652 118.742 96.8928C118.699 96.4915 118.718 98.1973 118.593 95.6777C118.577 95.3918 118.565 93.7847 118.572 93.8092C118.625 94.0226 118.68 95.607 118.704 95.6774C118.723 95.7326 118.632 93.9709 118.638 93.9552C118.692 93.9023 118.725 95.435 118.734 95.2105C118.747 94.7266 118.605 88.3487 118.933 96.6695C118.555 89.7702 118.804 95.7836 118.994 98.481C119.04 99.1678 119.084 99.3501 119.155 100.318C119.214 101.132 119.266 102.019 119.311 102.748C119.334 103.131 119.356 103.471 119.374 103.708C119.428 104.405 119.242 100.414 119.604 106.18C119.564 105.213 119.492 104.021 119.412 102.742C119.245 100.104 119.045 97.1245 118.994 95.1877C118.857 89.3864 119.314 99.2233 119.422 100.254C119.441 100.527 119.433 99.6099 119.447 99.7923C119.456 99.925 119.535 101.295 119.626 102.728C119.725 104.285 119.844 105.952 119.883 106.235C119.959 106.785 119.742 104.183 119.771 104.01C119.786 103.896 120.302 110.635 120.067 106.984C119.992 105.819 119.861 104.195 119.755 102.72C119.63 100.991 119.538 99.4726 119.576 99.0392C119.65 100.262 119.729 101.486 119.811 102.716C119.975 105.181 120.157 107.68 120.339 110.147C120.239 108.119 120.141 106.085 120.051 104.057C120.342 108.223 120.554 111.806 120.906 115.756C120.357 106.261 121.243 118.826 121.273 118.968C121.287 119.012 121.127 115.266 121.104 114.666C121.39 117.971 122.154 128.034 121.862 122.136C121.909 123.206 122.178 125.789 122.181 125.755C122.22 125.421 121.764 119.779 121.888 120.697C122.032 121.758 122.054 123.26 122.181 124.9C122.832 133.323 123 130.98 123.532 139.447C123.532 139.278 123.533 139.106 123.533 138.937C123.667 140.98 123.798 143.033 123.916 145.07C124.321 152.285 124.455 159.628 123.317 166.959C123.124 168.568 122.632 171.341 121.948 174.244C121.082 178.111 119.557 182.251 118.28 184.768C117.923 185.698 115.268 189.923 114.96 190.173C114.56 190.747 116.713 187.572 115.72 188.989C115.616 189.14 114.395 190.968 112.94 192.53C111.523 194.11 109.822 195.352 110.097 195.181C110.968 194.616 113.108 192.441 113.406 192.054C114.212 191.004 112.67 193.658 108.669 196.185C99.9604 199.932 91.3338 193.708 90.5778 193.881C91.0754 194.123 91.5786 194.362 92.085 194.594C90.6723 193.992 89.2922 193.348 87.9308 192.676C87.8698 192.646 87.8095 192.616 87.75 192.585ZM119.647 147.752C119.592 147.247 119.544 146.313 119.488 145.337C119.445 144.589 119.4 143.808 119.355 143.21C119.215 141.341 118.781 138.164 119.091 139.526C119.234 141.466 119.373 143.409 119.502 145.336C119.556 146.153 119.604 146.949 119.647 147.752ZM112.589 185.582C113.497 184.109 112.943 185.348 112.121 186.499C112.021 186.625 111.298 187.516 112.589 185.582ZM118.668 168.132C118.66 168.208 118.36 169.729 118.343 169.783C118.028 171.14 118.927 166.549 118.668 168.132ZM120.787 180.755C119.863 182.732 120.665 181.356 121.15 180.094C121.182 180.016 120.847 180.625 120.787 180.755ZM120.117 182.157C119.326 183.646 117.431 186.687 118.992 184.325C119.163 184.098 120.175 182.092 120.117 182.157ZM115.406 180.044C115.373 180.25 114.646 181.91 114.291 182.592C114.279 182.563 115.139 180.759 115.406 180.044ZM90.053 189.598C90.1072 189.594 87.4051 188.943 85.3794 188.445C85.2852 188.422 85.2059 188.407 85.1655 188.402C85.1315 188.394 85.1084 188.409 85.2941 188.399C85.3866 188.387 85.5541 188.387 85.896 188.23C86.2256 188.106 86.821 187.537 86.9477 186.973C87.0894 186.428 87.0024 186.158 86.9737 186.003C86.9358 185.852 86.905 185.789 86.8886 185.749C86.8247 185.62 86.8844 185.728 86.924 185.771C86.9681 185.826 87.0118 185.875 87.032 185.894C86.9924 185.848 86.9398 185.782 86.9016 185.729C86.8687 185.704 86.8293 185.555 86.9604 185.903C86.9889 186.006 87.0481 186.169 87.037 186.525C87.0431 186.861 86.8159 187.548 86.3885 187.913C85.9767 188.28 85.6718 188.341 85.5038 188.385C85.3283 188.422 85.2537 188.42 85.2045 188.421C85.043 188.414 85.2201 188.424 85.3738 188.468C87.3856 188.974 89.9963 189.606 90.053 189.598ZM107.728 191.145C107.553 191.192 105.093 191.442 105.165 191.442C106.375 191.424 108.54 191.047 107.728 191.145ZM124.743 162.189C124.742 162.065 124.471 163.773 124.84 159.698C124.894 159.1 124.803 161.242 124.822 161.03C124.863 160.584 124.89 160.231 124.909 159.95C124.807 161.847 124.666 163.84 124.639 164.032C124.523 164.933 124.747 162.243 124.743 162.189ZM136.008 156.426C136.111 156.311 136.428 155.989 136.791 155.6C137.682 154.661 138.265 153.421 138.444 153.05C138.485 152.95 138.38 153.419 138.862 152.245C139.211 151.307 138.646 152.673 139.289 150.871C139.873 149.075 139.158 151.498 139.199 151.346C139.315 151.123 140.086 148.348 140.087 148.443C140.119 148.515 139.244 151.475 138.895 152.252C138.486 153.234 139.095 152.05 138.29 153.711C137.702 154.764 137.939 154.133 137.807 154.354C137.76 154.422 137.412 155.036 136.842 155.648C136.187 156.361 135.401 157.092 136.012 156.422C136.011 156.423 136.009 156.425 136.008 156.426ZM124.936 159.437C124.931 159.578 124.922 159.747 124.909 159.95C124.918 159.778 124.927 159.604 124.936 159.437ZM119.849 153.022C119.833 153.97 119.761 151.164 119.755 150.094C119.79 150.064 119.859 152.878 119.849 153.022ZM124.971 157.681C124.975 157.623 124.98 157.567 124.984 157.514C124.974 157.674 124.924 157.997 124.668 158.346C124.42 158.688 124.07 158.872 123.887 158.934C123.506 159.054 123.483 159.008 123.453 159.019C123.425 159.022 123.478 159.032 123.461 159.035C123.463 159.037 123.378 159.044 123.522 159.046C123.602 159.031 123.789 159.078 124.268 158.788C124.497 158.642 124.745 158.371 124.873 158.102C124.998 157.848 125.028 157.643 125.038 157.517C125.01 158.051 124.975 158.726 124.936 159.437C124.968 158.643 124.903 158.618 124.971 157.681ZM101.131 192.776C101.028 192.751 100.963 192.728 100.958 192.709C101.228 192.778 101.254 192.791 101.131 192.776ZM95.2551 191.001C93.2202 190.267 97.3204 191.849 97.3097 191.757C97.3006 191.751 95.3381 191.043 95.2551 191.001ZM121.83 178.192C121.74 178.39 122.786 175.188 121.155 179.798C122.14 177.373 121.144 179.947 121.162 179.913C121.293 179.84 122.739 175.706 122.966 174.777C123.118 174.037 122.131 177.532 121.832 178.186C121.832 178.188 121.831 178.19 121.83 178.192ZM144.665 124.623C144.621 125.186 144.323 126.97 144.117 128.171C144.171 127.597 144.475 125.826 144.665 124.623ZM78.2286 133.394C71.1872 137.769 70.1797 138.169 76.6836 134.268C76.7945 134.202 78.6535 133.111 78.2286 133.394ZM116.818 115.172C117.575 114.966 115.163 115.896 113.566 116.474C113.204 116.605 111.853 117.039 113.359 116.447C113.346 116.55 115.704 115.687 116.818 115.172ZM123.578 158.978C124.042 158.945 126.393 160.107 128.472 160.189C127.084 160.289 124.251 159.113 123.578 158.978ZM75.9368 131.251C76.7573 130.919 77.2677 130.64 77.1288 130.69C76.5038 130.918 75.0048 131.596 75.9368 131.251ZM124.475 164.253C124.443 164.364 124.652 160.995 124.736 160.768C124.69 161.482 124.506 164.169 124.475 164.253ZM144.28 126.885C144.182 127.398 144.587 124.723 144.724 123.916C144.747 123.988 144.349 126.543 144.28 126.885ZM89.0026 125.981C89.7305 125.699 91.5492 124.985 91.747 124.879C91.9816 124.75 89.3148 125.813 89.0026 125.981ZM165.824 76.7011C165.93 76.6428 163.479 78.5133 162.375 79.2584C160.239 80.7163 165.752 76.7638 165.824 76.7011ZM68.2741 134.613C65.9392 135.689 68.5262 134.48 68.3994 134.478C67.3528 134.937 65.1395 136.174 64.7831 136.486C64.7031 136.544 64.6975 136.554 64.7916 136.499C64.9026 136.435 65.1642 136.267 65.6378 135.993C66.1737 135.669 67.5579 134.941 68.2741 134.613ZM70.3993 133.664C70.6442 133.53 72.2589 132.754 70.8356 133.38C70.176 133.671 69.1435 134.218 70.3993 133.664ZM150.347 87.4086C149.538 87.9156 150.657 87.1638 152.161 86.1562C154.212 84.785 157.041 82.873 157.171 82.7891C157.3 82.7077 157.384 82.6561 157.433 82.6278C157.749 82.3902 159.301 81.3176 159.528 81.2167C159.033 81.5553 157.769 82.429 157.599 82.5384C157.532 82.5819 157.48 82.6148 157.447 82.6347C157.108 82.9023 154.185 84.8817 152.189 86.1989C151.235 86.8304 150.466 87.3332 150.347 87.4086ZM136.255 96.569C138.328 95.1235 138.79 94.9969 138.608 95.1211C136.324 96.6756 137.776 95.6038 137.703 95.6452C137.531 95.747 135.924 96.8476 136.262 96.5647C136.26 96.5661 136.258 96.5675 136.255 96.569ZM147.465 89.2895C147.545 89.2354 149.331 88.0582 149.403 88.013C150.883 87.0921 145.857 90.4034 147.465 89.2895ZM141.146 143.027C141.468 141.534 141.222 143.014 140.989 144.009C140.968 144.094 140.855 144.347 141.146 143.027ZM71.5202 133.157C71.847 132.99 80.2369 129.581 79.7054 129.723C78.9845 129.992 69.471 133.938 71.5202 133.157ZM134.438 108.726C132.922 109.273 134.548 108.603 135.358 108.344C135.662 108.246 134.807 108.593 134.438 108.726ZM123.946 168.828C123.758 170.526 123.67 170.153 123.911 168.698C123.92 168.641 123.952 168.762 123.946 168.828ZM122.482 113.096C127.609 111.125 126.474 111.8 119.763 114.245C119.965 114.157 120.174 114.067 120.379 113.977C112.664 116.865 119.845 114.157 121.727 113.435C122.447 113.158 121.829 113.348 122.477 113.097C122.479 113.097 122.48 113.096 122.482 113.096ZM142.406 105.98C147.591 104.53 137.764 107.516 135.096 108.583C137.715 107.565 141.199 106.371 136.463 107.953C143.355 105.531 140.524 106.618 140.791 106.519C141.122 106.414 142.176 106.044 142.406 105.98ZM129.195 110.645C128.902 110.758 126.745 111.52 125.958 111.82C127.026 111.355 131.093 109.908 129.195 110.645ZM121.454 106.12C121.59 105.977 121.968 105.696 123.51 104.732C123.05 105.054 122.082 105.695 121.454 106.12ZM119.802 146.018C119.791 145.814 119.778 145.575 119.763 145.32C119.692 144.051 119.592 142.42 119.592 143.058C119.593 143.12 119.681 144.477 119.741 145.322C119.77 145.727 119.793 146.017 119.802 146.018ZM95.8863 123.386C96.1371 123.291 102.548 120.8 100.316 121.613C99.6406 121.857 93.8123 124.142 95.8863 123.386ZM66.9392 140.028C66.7399 140.136 66.5076 140.289 65.9145 140.575C65.8476 140.604 65.8409 140.611 65.6831 140.668C65.6398 140.683 65.5894 140.7 65.5197 140.718C65.4848 140.727 65.4448 140.737 65.3962 140.746C65.3719 140.751 65.3454 140.756 65.316 140.761C65.3013 140.763 65.2858 140.765 65.2695 140.767C65.2566 140.769 65.2324 140.773 65.1576 140.779C65.0251 140.787 64.8482 140.798 64.5529 140.731C64.272 140.665 63.7883 140.473 63.4311 139.979C63.0667 139.499 63.033 138.854 63.0781 138.599C63.1014 138.417 63.1424 138.28 63.1818 138.172C63.3485 137.755 63.4622 137.665 63.5376 137.564C63.861 137.217 63.8451 137.273 63.942 137.186C64.0694 137.086 64.1791 137.007 64.276 136.938C64.4773 136.794 64.6625 136.667 64.829 136.555C65.1848 136.313 65.4696 136.134 65.4827 136.122C65.53 136.077 65.2135 136.262 64.8121 136.529C64.6279 136.652 64.423 136.791 64.2008 136.952C64.077 137.044 63.9939 137.1 63.7884 137.273C63.7632 137.294 63.7174 137.334 63.6698 137.38C63.6088 137.457 63.612 137.377 63.3078 137.836C63.2373 137.963 63.1345 138.133 63.0646 138.491C63.0564 138.537 63.0499 138.58 63.0437 138.639C63.0334 138.739 63.0294 138.851 63.0379 138.976C63.0536 139.224 63.1282 139.531 63.2884 139.812C63.615 140.4 64.1874 140.673 64.5025 140.748C64.8371 140.832 65.0289 140.816 65.1707 140.808C65.3225 140.793 65.2804 140.795 65.3296 140.788C65.3924 140.778 65.4422 140.767 65.485 140.757C65.6469 140.717 65.745 140.676 65.7848 140.661C65.9404 140.598 66.0193 140.557 66.0865 140.523C66.5923 140.258 66.86 140.084 66.9392 140.028ZM119.45 139.741C119.445 139.575 119.173 135.768 119.179 136.193C119.194 136.992 119.472 140.301 119.45 139.741ZM142.119 137.551C142.176 137.24 142.305 136.83 142.327 136.719C142.38 136.465 143.428 130.717 143.085 132.916C143.035 133.289 141.446 141.562 141.19 142.646C141.041 143.05 141.82 139.517 141.973 138.655C142 138.506 141.963 138.395 142.118 137.553C142.119 137.553 142.119 137.552 142.119 137.551ZM129.398 100.979C129.593 100.804 135.353 97.0583 135.316 97.1425C133.347 98.4234 131.374 99.7024 129.398 100.979ZM126.456 102.857C125.204 103.621 128.089 101.762 128.95 101.225C128.976 101.244 126.637 102.747 126.456 102.857ZM74.9502 131.918C75.5814 131.643 73.5945 132.402 74.0264 132.209C74.2936 132.087 75.7561 131.505 76.1903 131.306C76.3144 131.247 74.8493 131.787 74.4136 131.973C73.8214 132.225 74.4245 132.023 73.7612 132.302C71.5904 133.221 69.6588 134.004 67.6062 135.013C67.4244 135.103 68.8746 134.424 67.2908 135.209C67.1114 135.307 66.1154 135.742 64.8457 136.58C64.6695 136.696 64.4879 136.817 64.2903 136.957C64.1953 137.024 64.0885 137.1 63.9609 137.199C63.8709 137.277 63.8677 137.247 63.5801 137.548C63.5086 137.638 63.4085 137.719 63.2437 138.074C63.2038 138.167 63.1605 138.282 63.1265 138.44C63.1181 138.48 63.1104 138.522 63.1039 138.567C63.1006 138.59 63.0977 138.613 63.0951 138.637C63.0901 138.684 63.0866 138.733 63.085 138.785C63.0786 138.992 63.1062 139.254 63.2107 139.527C63.411 140.096 63.9598 140.515 64.3127 140.633C64.6791 140.769 64.9041 140.763 65.0634 140.762C65.1382 140.761 65.2234 140.752 65.247 140.749C65.2644 140.747 65.2809 140.744 65.2966 140.742C65.328 140.737 65.356 140.732 65.3817 140.728C65.433 140.718 65.4747 140.708 65.5111 140.698C65.5836 140.679 65.6353 140.662 65.6797 140.647C65.8356 140.59 65.8472 140.581 65.916 140.551C70.121 138.06 72.7353 136.53 77.6025 133.495C77.3968 133.607 73.7866 135.777 73.5547 135.915C72.4422 136.586 71.0824 137.408 69.6106 138.286C68.8794 138.721 68.1001 139.184 67.299 139.645C66.8883 139.879 66.5226 140.095 66.0057 140.357C65.9378 140.39 65.8569 140.431 65.709 140.49C65.6566 140.509 65.5718 140.544 65.4083 140.582C65.3657 140.591 65.3158 140.601 65.2522 140.609C65.2602 140.608 65.0919 140.634 64.9086 140.623C64.7176 140.607 64.4116 140.586 63.9983 140.313C63.5767 140.058 63.2286 139.406 63.226 138.962C63.2184 138.85 63.2221 138.749 63.2312 138.66C63.2369 138.605 63.2426 138.568 63.25 138.526C63.2646 138.445 63.2827 138.375 63.3016 138.314C63.3793 138.071 63.4573 137.952 63.5152 137.859C63.7647 137.514 63.7489 137.578 63.8071 137.511C63.8492 137.471 63.8924 137.433 63.9136 137.415C64.105 137.256 64.1854 137.203 64.3048 137.116C64.5185 136.963 64.719 136.828 64.9212 136.693C67.7275 134.871 70.4899 133.845 72.5594 132.921C73.7337 132.421 73.1616 132.629 73.6598 132.417C74.0609 132.248 73.6087 132.502 74.9502 131.918ZM119.871 146.666C119.883 146.423 119.864 145.926 119.829 145.316C119.78 144.488 119.703 143.448 119.655 142.677C119.637 142.996 119.724 144.202 119.795 145.318C119.827 145.812 119.855 146.284 119.871 146.666ZM100.373 119.333C99.7952 119.699 98.05 120.772 97.9024 120.886C97.7371 121.018 100.265 119.45 100.373 119.333ZM147.14 104.877C147.147 104.811 147.344 103.208 147.352 103.151C147.573 101.727 146.982 106.533 147.14 104.877ZM143.681 112.689C143.738 113.917 143.809 115.143 143.778 115.554C143.752 114.781 143.64 112.545 143.681 112.689ZM148.081 165.995C148.103 165.814 148.483 167.676 149.432 169.24C149.833 169.894 150.371 170.373 150.628 170.562C150.513 170.491 149.876 170.013 149.401 169.26C148.512 167.861 148.106 166.143 148.081 165.995ZM121.122 106.091C123.018 104.887 122.566 105.059 123.793 104.328C123.992 104.209 124.738 103.975 122.613 105.241C122.231 105.469 123.671 104.493 121.122 106.091ZM118.676 114.655C118.156 114.898 116.483 115.52 115.352 115.948C115.596 115.821 117.875 114.962 118.676 114.655ZM119.019 132.866C119.005 131.812 118.607 126.962 118.655 128.166C118.663 128.338 118.973 132.185 119.019 132.866ZM129.891 159.884C131.335 159.479 130.299 159.9 128.691 159.959C127.297 159.957 126.181 159.541 125.595 159.391C125.988 159.499 127.284 160.002 128.691 159.999C129.348 159.993 129.829 159.894 129.891 159.884ZM146.074 153.082C146.081 153.163 146.301 155.318 146.312 155.407C146.445 157.157 145.832 151.127 146.074 153.082ZM143.371 99.9834C143.395 100.365 143.419 101.808 143.45 103.306C143.48 104.807 143.514 106.38 143.513 106.937C143.472 106.471 143.412 104.853 143.379 103.308C143.333 101.333 143.337 99.4523 143.371 99.9834ZM113.332 111.074C114.685 110.214 115.975 109.41 117.228 108.634C116.984 108.829 113.488 111.005 113.332 111.074ZM147.056 160.926C147.074 161.038 147.089 161.15 147.107 161.263C147.089 161.145 147.072 161.033 147.056 160.926ZM82.9186 130.123C81.7957 130.804 82.0354 130.726 82.1164 130.678C82.9751 130.168 84.2227 129.33 82.9186 130.123ZM119.873 145.146C119.901 144.684 119.717 142.436 119.644 141.142C119.626 141.511 119.806 144.103 119.873 145.146ZM148.09 104.554C149.798 104.178 142.859 105.955 141.531 106.474C141.383 106.429 147.745 104.489 148.09 104.554ZM123.47 158.681C123.485 158.667 123.448 158.693 123.703 158.629C123.823 158.595 124.113 158.484 124.352 158.191C124.592 157.896 124.636 157.605 124.643 157.491C124.595 158.316 124.557 159.367 124.594 158.975C124.613 158.768 124.655 158.079 124.686 157.494C124.682 157.618 124.607 157.999 124.304 158.304C124 158.605 123.738 158.655 123.634 158.679C123.427 158.708 123.481 158.683 123.47 158.681ZM138.227 107.571C137.62 107.796 136.183 108.261 136.675 108.06C137.303 107.802 138.382 107.513 138.227 107.571ZM84.106 128.245C84.3794 128.141 87.8792 126.705 86.4097 127.242C85.3959 127.612 85.2441 127.739 85.0113 127.831C84.7381 127.937 79.0708 130.125 84.106 128.245ZM176.768 120.766C176.694 119.315 176.597 117.548 176.454 116.029C176.555 116.64 176.795 120.142 176.768 120.766ZM134.966 157.032C134.861 157.107 133.941 157.976 132.625 158.735C131.338 159.531 129.492 159.933 128.69 159.902C128.155 159.899 128.057 159.9 128.69 159.919C129.034 159.917 129.633 159.899 130.467 159.685C130.677 159.663 132.361 159.078 133.478 158.25C134.623 157.454 135.404 156.658 134.966 157.032ZM121.122 106.091C120.883 106.243 120.606 106.417 120.283 106.618C120.602 106.417 120.88 106.243 121.122 106.091ZM99.5462 119.728C99.9654 119.428 97.7632 120.801 97.1129 121.228C96.9332 121.385 99.4888 119.769 99.5462 119.728ZM176.4 115.918C176.302 115.036 176.146 113.449 175.994 112.365C176.063 112.564 176.405 115.519 176.4 115.918ZM154.547 171.305C156.741 171.092 158.819 169.662 158.815 169.621C158.852 169.603 158.933 169.557 159.066 169.473C159.227 169.407 160.832 168.116 161.423 167.491C163.568 165.115 158.621 171.596 153.719 171.39C152.352 171.444 151.325 170.857 151.219 170.782C151.075 170.626 151.79 171.352 153.718 171.328C154.516 171.299 155.576 171.142 156.773 170.653C156.082 170.953 155.328 171.184 154.547 171.305ZM143.59 93.0148C143.648 92.3138 143.968 90.3031 144.342 89.6257C144.439 89.395 144.47 89.3171 144.363 89.5338C144.352 89.5563 144.339 89.5844 144.323 89.6173C144.114 89.9843 143.729 91.2743 143.655 92.0902C143.55 92.9354 143.533 93.503 143.59 93.0148ZM144.72 130.633C144.711 130.34 144.542 127.686 144.517 127.618C144.571 129.147 144.755 131.958 144.72 130.633ZM148.2 93.2836C148.148 93.9016 148.142 94.7088 148.153 94.6298C148.24 94.0095 148.314 92.2381 148.2 93.2836ZM117.095 108.434C116.316 108.905 113.898 110.498 113.39 110.874C113.286 110.929 113.013 111.089 112.517 111.386C112.518 111.385 112.52 111.385 112.521 111.384C111.852 111.802 92.0376 124.246 105.371 115.959C105.788 115.7 105.195 116.025 106.892 114.963C107.005 114.893 107.078 114.886 107.426 114.669C108.217 114.174 112.464 111.514 113.296 110.954C113.307 110.955 113.365 110.925 113.484 110.855C114.554 110.236 117.697 108.069 117.095 108.434ZM145.017 135.903C144.999 135.363 144.892 133.674 144.853 133.501C144.884 134.34 145.059 137.146 145.017 135.903ZM134.643 157.154C134.184 157.537 133.329 158.206 132.587 158.637C131.851 159.073 131.285 159.298 131.765 159.108C132.518 158.987 135.748 156.284 134.643 157.154ZM144.129 118.942C144.387 125.194 144.201 120.434 144.289 121.389C144.235 120.573 144.181 119.755 144.129 118.942ZM141.506 92.8747C140.672 93.4067 141.597 92.702 142.551 92.1336C142.849 91.9563 141.979 92.5729 141.506 92.8747ZM178.19 66.3335C177.523 66.9132 180.56 63.8803 179.43 65.1156C179.384 65.1741 178.239 66.2986 178.19 66.3335ZM152.812 85.3348C152.558 85.5347 152.341 85.6974 152.008 85.9285C151.653 86.1752 151.164 86.5008 150.312 87.0601C152.289 85.727 151.047 86.5145 151.981 85.8882C152.166 85.764 152.432 85.5868 152.812 85.3348ZM158.794 169.628C158.806 169.623 158.816 169.618 158.815 169.621C158.802 169.627 158.796 169.629 158.794 169.628ZM147.621 99.195C147.49 99.9741 147.24 102.15 147.359 101.507C147.37 101.45 147.618 99.5109 147.621 99.195ZM113.39 110.874C113.482 110.825 113.44 110.858 113.296 110.954C113.286 110.953 113.321 110.925 113.39 110.874ZM143.898 91.2721C143.775 91.2566 143.472 94.8016 143.513 94.9167C143.533 96.8686 143.524 92.9192 143.898 91.2721ZM123.684 167.862C123.668 168.038 123.879 166.92 123.91 166.228C123.936 165.693 123.749 167.206 123.684 167.862ZM158.167 81.6717C159.018 81.0876 160.271 80.2168 160.509 80.099C159.937 80.4925 158.16 81.7135 158.167 81.6717ZM176.933 67.4459C176.032 68.3549 173.812 70.2425 172.358 71.3775C172.308 71.3648 176.074 68.3112 176.933 67.4459ZM119.527 106.914C119.453 106.959 117.206 108.366 117.534 108.206C118.012 107.974 120.171 106.531 119.527 106.914ZM124.191 162.669C124.246 161.477 123.972 164.209 123.921 165.48C123.904 166.13 124.191 162.868 124.191 162.669ZM146.756 106.005C146.588 107.566 147.106 103.717 147.125 103.169C147.036 103.886 146.817 105.45 146.756 106.005ZM144.603 126.232C144.482 121.298 144.389 123.993 144.452 124.867C144.46 124.99 144.606 126.353 144.603 126.232ZM118.377 120.653C118.308 119.959 118.437 122.558 118.503 122.89C118.544 123.096 118.421 121.096 118.377 120.653ZM172.129 148.865C172.05 149.057 171.97 149.249 171.89 149.44C171.948 149.296 172.026 149.108 172.129 148.865ZM144.698 120.089C145.371 116.669 145.177 117.012 145.222 116.713C145.314 116.066 145.569 114.569 145.724 113.348C145.556 114.748 145.384 116.147 145.207 117.546C145.394 116.446 146.717 106.866 146.7 106.657C146.696 106.365 146.328 109.385 146.311 109.474C146.29 109.602 146.117 110.055 146.076 110.335C146.021 110.798 144.929 118.809 144.698 120.089ZM144.096 115.926C144.118 116.72 144.083 116.945 144.11 117.315C144.119 117.44 144.163 117.46 144.193 117.886C144.16 117.234 144.128 116.579 144.096 115.926ZM143.91 126.275C143.705 127.242 144.416 122.88 144.437 122.737C144.588 121.994 144.085 125.489 143.91 126.275ZM144.631 89.298C144.645 89.2727 144.684 89.1928 144.782 89.031C144.833 88.9499 144.892 88.8493 145.026 88.6863C145.105 88.5962 145.174 88.5029 145.399 88.3345C145.496 88.2645 145.673 88.1472 145.936 88.069C146.192 87.9815 146.682 87.9643 147.036 88.1179C147.812 88.4873 147.859 88.8407 147.975 89.0178C148.067 89.2171 148.097 89.3419 148.124 89.4463C148.176 89.6627 148.194 89.8207 148.209 89.9596C148.237 90.2501 148.243 90.5035 148.245 90.7458C148.248 91.7063 148.182 92.5611 148.2 92.5438C148.226 92.1983 148.294 91.3955 148.273 90.4558C148.263 90.2119 148.256 89.9784 148.197 89.6322C148.178 89.5322 148.162 89.4494 148.121 89.3124C148.1 89.243 148.077 89.1737 148.042 89.0913C148 88.9895 147.946 88.8792 147.861 88.7509C147.736 88.5787 147.636 88.4212 147.274 88.1984C146.942 87.9928 146.421 87.9174 146.061 88.0056C145.4 88.1795 145.265 88.4156 145.131 88.5254C144.893 88.7772 144.834 88.8984 144.757 89.0183C144.687 89.1339 144.64 89.2248 144.599 89.3049C144.518 89.466 144.467 89.5811 144.43 89.6656C144.353 89.8468 144.346 89.8761 144.443 89.6712C144.482 89.5903 144.536 89.4774 144.631 89.298ZM144.22 118.414C144.269 119.603 144.332 121.851 144.384 121.591C144.384 121.59 144.384 121.588 144.384 121.586C144.328 120.527 144.274 119.473 144.22 118.414ZM124.318 158.598C124.08 160.79 124.273 159.751 124.428 157.815C124.42 157.225 124.357 158.239 124.318 158.598ZM123.739 165.662C123.74 166.268 122.845 172.684 123.002 171.722C123.128 171.365 123.587 167.672 123.585 167.507C123.617 167.251 123.557 168.428 123.748 166.469C123.717 166.581 123.766 165.451 123.739 165.662ZM124.139 160.414C123.921 162.6 124.026 163.106 124.139 161.454C124.181 160.809 124.17 160.104 124.139 160.414ZM128.331 159.592C127.212 159.583 125.029 158.72 123.867 158.447C125.146 158.765 126.565 159.562 128.686 159.623C129.21 159.616 129.729 159.547 130.224 159.427C130.458 159.34 129.539 159.61 128.686 159.602C128.559 159.603 128.434 159.599 128.323 159.591C128.326 159.591 128.328 159.592 128.331 159.592ZM185.365 56.8736C184.425 58.401 186.482 54.8221 186.531 54.6676C186.8 54.2305 185.803 56.1913 185.365 56.8736ZM118.699 107.012C118.682 106.522 118.714 106.212 118.614 105.15C118.647 106.228 118.68 107.283 118.717 108.362C118.865 109.184 118.717 107.536 118.699 107.012ZM118.756 102.915C118.768 103.068 118.852 102.227 118.887 104.184C118.897 104.688 118.823 103.95 118.731 102.785C118.58 100.876 118.396 97.8609 118.393 97.0602C118.492 98.4287 118.642 101.411 118.746 102.784C118.749 102.83 118.752 102.873 118.756 102.915ZM118.778 90.3776C118.773 90.2883 118.841 92.9927 118.855 93.3042C118.873 94.9567 118.686 90.8099 118.778 90.3776ZM119.093 99.0175C119.047 97.7546 119.227 100.564 119.266 101.405C119.244 101.483 119.1 99.2198 119.093 99.0175ZM171.984 68.5676C170.86 69.3609 170.024 70.2824 171.647 68.9291C171.72 68.8683 172.033 68.5336 171.984 68.5676ZM118.966 93.009C118.984 94.2793 118.861 91.4617 118.888 90.6414C118.904 90.5639 118.956 92.814 118.966 93.009ZM171.092 69.0007C169.63 70.0798 170.259 69.8657 170.453 69.7266C171.222 69.1815 173.64 67.0621 174.102 66.6065C170.473 69.7414 171.769 68.4737 171.092 69.0007ZM164.467 74.2027C163.098 75.2287 166.643 72.7064 167.261 72.1492C166.583 72.6656 164.863 73.9088 164.467 74.2027ZM155.989 80.0779C155.241 80.5827 152.982 82.0924 152.612 82.3836C153.449 81.8129 155.696 80.325 155.989 80.0779ZM154.218 81.1562C153.018 81.9116 152.82 82.2173 154.142 81.2697C154.195 81.2315 154.264 81.1284 154.218 81.1562ZM147.522 85.5861C146.709 86.0582 145.873 86.7757 147.16 85.928C147.54 85.6775 147.609 85.5367 147.522 85.5861ZM169.147 70.2216C168.08 71.0158 166.775 72.1323 169.039 70.4126C168.261 71.033 167.458 71.6603 166.675 72.2637C169.687 70.068 169.38 70.097 170.225 69.4471C171.394 68.5286 171.378 68.6781 171.165 68.8973C172.088 68.0947 176.066 64.7536 178.027 62.5232C176.257 64.448 173.031 67.2179 170.969 68.8224C170.385 69.2847 169.838 69.7546 169.331 70.1443C168.522 70.7637 169.205 70.1789 169.151 70.2183C169.15 70.2194 169.148 70.2205 169.147 70.2216ZM138.684 91.3885C136.329 92.8439 137.871 92.0068 139.167 91.1327C139.222 91.0946 138.743 91.3521 138.684 91.3885ZM119.361 89.4342C119.285 92.9803 119.114 90.3663 119.606 98.0246C119.349 94.7972 119.537 97.8537 119.469 97.2212C119.414 96.7094 119.343 94.8356 119.344 95.9251C119.298 94.488 119.101 88.1611 119.389 88.189C119.389 88.1912 119.388 88.1933 119.388 88.1955C119.433 88.0808 119.432 88.3589 119.361 89.4342ZM155.773 79.7872C154.931 80.1599 154.766 80.5973 153.208 81.4854C151.335 83.0071 158.697 77.748 159.675 77.2433C151.596 82.8398 165.089 73.6655 159.326 77.3826C163.975 74.2214 160.814 76.2957 161.504 75.7697C162.262 75.1956 164.855 73.3646 164.687 73.405C164.686 73.406 164.684 73.4071 164.683 73.4081C163.113 74.5606 161.529 75.6965 159.929 76.825C161.567 75.8388 158.295 78.0901 157.101 78.7747C156.668 79.1063 156.226 79.4437 155.773 79.7872ZM164.878 73.521C164.72 73.6434 161.297 76.1233 161.521 75.9906C162.019 75.6775 166.845 72.1347 164.878 73.521ZM178.874 61.4766C178.703 61.6658 178.513 61.8732 178.311 62.0913C177.35 63.1417 176.136 64.3254 175.669 64.8181C176.492 64.0483 177.618 62.9138 178.331 62.1095C178.563 61.8501 178.751 61.6312 178.874 61.4766ZM114.858 106.551C113.235 107.632 118.308 104.423 116.816 105.313C116.743 105.357 114.938 106.499 114.858 106.551ZM152.126 82.296C150.474 83.3457 151.33 82.9678 152.518 82.1151C152.59 82.0638 152.197 82.251 152.126 82.296ZM119.385 92.3292C119.407 92.456 119.628 97.7606 119.696 98.7208C119.612 98.1686 119.309 92.18 119.385 92.3292ZM180.473 59.3877C179.757 60.1881 178.937 61.1002 178.161 61.9528C176.827 63.433 175.625 64.6506 175.413 64.8457C175.094 65.1403 175.551 64.6256 175.478 64.6915C175.34 64.876 171.793 67.9596 171.592 68.0885C171.465 68.1962 172.193 67.7158 171.443 68.3642C172.561 67.4488 176.474 64.0629 178.239 62.0245C178.855 61.3565 179.264 60.89 179.334 60.8059C179.546 60.536 177.808 62.4458 180.47 59.3917C180.471 59.3903 180.472 59.389 180.473 59.3877ZM174.589 65.5788C175.489 64.8214 173.04 67.0239 172.4 67.5131C171.009 68.6418 174.501 65.6969 174.589 65.5788ZM168.412 70.6122C168.109 70.8444 165.361 72.8906 165.131 73.1024C166.487 72.1845 169.11 70.1041 168.412 70.6122ZM136.717 92.3306C135.964 92.827 133.876 94.1412 133.774 94.2495C134.527 93.7568 136.619 92.4378 136.717 92.3306ZM120.776 110.477C120.699 108.983 120.959 112.437 121.018 113.447C120.997 113.496 120.782 110.608 120.776 110.477ZM151.66 82.1943C151.558 82.2603 151.009 82.6293 150.174 83.1895C147.482 85.0036 141.889 88.703 140.924 89.3457C141.901 88.7365 147.599 84.9969 150.206 83.2376C150.965 82.7277 151.458 82.3934 151.545 82.3313C151.66 82.2493 151.717 82.1585 151.66 82.1943ZM170.623 68.5649C171.354 67.9102 171.887 67.5487 171.981 67.4724C172.937 66.7065 174.775 65.046 174.406 65.4424C172.847 66.8652 169.157 69.8676 170.623 68.5649ZM135.939 92.5498C132.852 94.5756 138.819 90.7703 138.016 91.2239C137.957 91.2588 136.262 92.3378 135.939 92.5498ZM152.658 81.5024C153.328 81.0298 162.241 74.9118 163.623 73.8572C162.405 74.8357 161.365 75.5056 159.649 76.7152C159.193 77.0366 159.332 76.9789 159.283 77.0133C158.478 77.5781 159.062 77.124 158.558 77.4743C158.268 77.6963 151.751 82.2 152.658 81.5024ZM171.037 68.1838C171.542 67.8249 176.473 63.4215 176.585 63.1795C178.096 61.8862 171.562 67.95 171.037 68.1838ZM151.789 82.0043C152.725 81.2695 157.175 78.3038 154.173 80.4086C153.866 80.623 152.642 81.4058 151.789 82.0043ZM136.222 92.2616C136.064 92.3622 132.835 94.431 132.786 94.4963C133.268 94.2009 137.969 91.1639 136.222 92.2616ZM137.837 91.0944C137.761 91.1445 138.544 90.7027 137.031 91.6778C136.905 91.7585 136.64 91.8569 134.747 93.1108C134.367 93.3631 133.791 93.7854 133.836 93.7598C135.872 92.5655 141.719 88.5258 137.837 91.0944ZM171.098 68.0683C170.802 68.2729 171.43 67.6653 172.054 67.1966C172.321 66.995 171.879 67.4322 171.098 68.0683ZM125.962 98.8477C127.819 97.6009 121.904 101.379 121.61 101.579C121.817 101.484 125.776 98.9738 125.962 98.8477ZM121.398 113.938C121.398 113.937 121.398 113.935 121.398 113.933C121.524 115.814 121.4 114.653 121.405 114.741C121.638 118.735 121.652 117.674 121.708 118.296C121.83 119.637 121.704 119.427 121.916 121.684C121.574 117.952 121.853 121.351 121.821 121.46C121.692 121.891 121.529 116.479 121.36 114.621C121.337 114.365 121.425 116.279 121.362 115.616C121.156 113.463 120.92 106.745 121.398 113.938ZM172.507 66.8071C173.201 66.2785 177.822 61.8575 176.628 63.0625C176.52 63.3203 171.637 67.6922 172.507 66.8071ZM157.277 166.38C158.354 165.551 155.774 167.36 155.277 167.415C155.034 167.567 156.813 166.822 157.277 166.38ZM149.743 150.901C149.568 149.031 149.249 147.08 149.462 149.4C149.485 149.656 149.737 151.11 149.743 150.901ZM140.952 110.546C142.828 109.975 142.678 109.91 141.322 110.366C140.837 110.532 140.895 110.563 140.952 110.546ZM168.66 147.901C168.582 148.088 167.705 150.153 167.757 150.09C168.109 149.34 169.172 146.744 168.66 147.901ZM140.374 110.761C141.466 110.365 139.545 110.935 138.231 111.486C138.924 111.233 140.249 110.805 140.374 110.761ZM148.27 84.0608C147.489 84.6374 145.178 86.1516 143.842 87.0393C143.668 87.0841 147.346 84.6927 148.27 84.0608ZM150.557 158.778C150.267 157.049 150.772 160.776 150.785 160.415C150.779 160.378 150.565 158.844 150.557 158.778ZM81.5668 133.238C82.7525 132.719 78.9277 134.216 80.0004 133.849C80.0446 133.834 81.5091 133.263 81.5668 133.238ZM64.5321 136.937C64.4644 136.972 64.3958 137.007 64.3405 137.033C64.3316 137.038 64.3193 137.043 64.331 137.037C64.3732 137.031 64.259 137.027 64.7186 136.93C64.7616 136.926 64.745 136.919 64.9573 136.908C65.1369 136.911 65.4179 136.89 65.8976 137.125C66.385 137.326 66.9336 138.115 66.9334 138.684C66.945 138.823 66.9394 138.954 66.9284 139.052C66.9222 139.109 66.914 139.161 66.9046 139.209C66.8858 139.306 66.8627 139.387 66.8392 139.457C66.6357 139.982 66.5194 140.025 66.4551 140.117C66.3803 140.199 66.3597 140.214 66.3401 140.233C66.3114 140.258 66.319 140.251 66.3297 140.243C66.4455 140.153 66.7282 139.958 66.9831 139.789C68.0497 139.062 69.4062 138.407 68.4661 138.862C68.3515 138.919 67.6251 139.308 66.9645 139.761C66.8062 139.867 66.6505 139.975 66.5185 140.07C66.454 140.116 66.3925 140.162 66.3482 140.196C66.326 140.213 66.3098 140.227 66.3058 140.231C66.3165 140.216 66.2701 140.284 66.4755 140.06C66.5214 140.005 66.5836 139.933 66.6753 139.772C66.7207 139.691 66.7749 139.585 66.8275 139.423C66.8535 139.342 66.8787 139.245 66.8966 139.129C66.9013 139.097 66.9042 139.077 66.909 139.03C66.9151 138.969 66.9187 138.902 66.9183 138.83C66.9175 138.687 66.9002 138.522 66.8531 138.347C66.6847 137.579 65.8662 137.05 65.4931 136.992C65.0919 136.893 64.8824 136.935 64.7812 136.943C64.6958 136.953 64.6366 136.966 64.5893 136.977C64.4104 137.02 64.3704 137.044 64.3599 137.047C64.3255 137.06 64.3328 137.057 64.3407 137.052C64.3544 137.045 64.4029 137.019 64.424 137.006C64.478 136.975 64.527 136.944 64.5321 136.937ZM121.759 118.403C121.782 117.868 121.994 120.95 122.016 121.39C122.024 121.562 121.731 119.104 121.759 118.403ZM152.82 107.82C152.859 107.819 152.9 107.817 152.944 107.816C154.044 107.784 156.495 107.747 156.941 107.709C155.92 107.732 153.569 107.753 152.943 107.792C152.813 107.8 152.763 107.81 152.82 107.82ZM152.199 166.293C151.767 165.076 151.249 162.533 151.294 163.174C151.961 165.841 151.197 162.96 152.199 166.293ZM134.232 113.022C135.007 112.746 135.559 112.457 135.474 112.484C134.634 112.747 133.448 113.272 134.232 113.022ZM173.015 128.098C172.988 128.14 172.839 130.694 172.88 130.355C172.904 130.246 173.053 128.06 173.015 128.098ZM119.444 102.731C118.412 103.35 121.492 101.348 122.426 100.796C122.902 100.558 119.574 102.653 119.444 102.731ZM112.995 120.974C112.901 121.066 116.721 119.573 115.195 120.109C114.811 120.244 113.029 120.942 112.995 120.974ZM76.5251 135.417C79.0027 134.277 68.4817 138.757 71.274 137.642C71.4411 137.547 76.3061 135.5 76.5251 135.417ZM69.8593 133.684C69.4456 133.926 69.5637 133.648 71.2691 132.688C71.4952 132.561 70.4898 133.23 70.6743 133.13C70.7897 133.069 74.4242 130.872 74.602 130.756C74.7753 130.644 74.5379 130.723 74.7134 130.607C74.9079 130.479 77.1868 129.134 78.3504 128.414C78.4469 128.355 78.5402 128.297 78.6305 128.241C80.5604 127.043 80.7774 126.856 80.945 126.752C81.4774 126.421 82.3686 125.908 83.4468 125.237C88.8304 121.892 97.0078 116.721 101.317 114.126C97.5254 116.464 93.9186 118.778 90.1644 121.139C91.2256 120.36 84.6569 124.667 88.4844 122.143C87.5719 122.728 83.0395 125.57 78.659 128.287C74.5125 130.861 70.5191 133.298 69.8639 133.681C69.8623 133.682 69.8608 133.683 69.8593 133.684ZM149.234 143.509C149.367 144.665 148.981 138.728 148.885 138.229C148.919 139.015 149.215 143.36 149.234 143.509ZM153.342 167.415C153.403 167.421 153.47 167.412 153.602 167.39C153.965 167.327 154.524 167.333 155.779 166.78C155.781 166.779 155.782 166.778 155.784 166.777C156.369 166.493 155.724 166.863 155.835 166.816C155.88 166.846 157.708 165.752 156.216 166.695C155.063 167.313 155.002 167.202 155.074 167.175C155.146 167.119 155.349 167.038 154.742 167.225C154.674 167.246 154.138 167.407 153.604 167.433C153.205 167.459 153.107 167.366 153.107 167.386C153.101 167.395 153.327 167.464 153.409 167.468C153.648 167.506 153.538 167.533 153.571 167.537C153.578 167.537 153.589 167.537 153.607 167.536C153.855 167.538 154.814 167.441 155.783 166.947C156.755 166.481 157.687 165.692 157.944 165.5C158.093 165.426 155.479 167.686 153.608 167.578C153.286 167.587 153.147 167.523 153.051 167.471C152.956 167.417 152.894 167.349 152.882 167.335C152.839 167.279 152.937 167.234 152.9 167.171C152.896 167.165 152.874 167.138 152.837 167.082C152.552 166.802 151.822 164.531 151.772 164.177C151.743 164.052 151.725 163.962 151.711 163.895C151.779 164.408 151.15 161.426 151.223 161.504C151.235 161.551 151.646 163.625 151.671 163.683C151.678 163.715 151.683 163.743 151.688 163.769C151.633 163.443 152.285 166.255 152.871 167.06C153.099 167.37 153.181 167.319 153.108 167.262C153.271 167.348 153.28 167.345 153.237 167.36C153.208 167.368 153.128 167.379 153.342 167.415ZM159.876 163.253C159.753 163.419 159.63 163.58 159.506 163.738C161.75 161.136 163.915 157.477 165.757 153.653C166.222 152.678 165.63 153.774 166.25 152.499C166.743 151.478 167.308 150.345 167.069 150.919C167.015 151.06 166.018 153.154 165.507 154.186C163.995 157.229 164.406 156.469 164.324 156.652C164.226 156.85 163.165 158.689 162.553 159.654C161 162.029 160.329 163.316 157.631 165.673C159.139 164.261 158.272 165.031 159.876 163.253ZM96.9045 127.381C96.7901 127.464 94.4679 128.34 93.6362 128.673C93.7512 128.589 96.0706 127.713 96.9045 127.381ZM91.2131 185.322C90.4786 185.233 95.9327 186.433 94.5041 186.072C94.1893 186.003 91.9056 185.49 91.2131 185.322ZM113.636 184.132C113.843 183.891 113.514 184.251 113.115 184.61C112.718 184.976 112.25 185.299 112.263 185.315C112.284 185.376 113.596 184.239 113.636 184.132ZM172.645 118.909C172.641 118.777 172.495 116.722 172.487 116.663C172.464 115.299 172.888 122.036 172.645 118.909ZM124.29 154.72C123.779 154.622 123.249 154.649 123.128 154.671C122.987 154.693 123.314 154.644 123.687 154.67C124.459 154.721 125.226 154.982 125.899 155.203C127.243 155.675 128.247 155.908 127.293 155.624C127.26 155.64 124.775 154.748 124.29 154.72ZM132.534 153.784C132.126 154.253 130.247 155.507 130.242 155.444C130.229 155.467 130.751 155.234 131.311 154.831C131.871 154.439 132.448 153.899 132.534 153.784ZM133.791 113.419C133.901 113.405 133.523 113.551 132.91 113.777C131.87 114.159 130.148 114.775 129.384 115.064C129.136 115.099 131.388 114.288 132.898 113.744C133.257 113.615 133.566 113.503 133.791 113.419ZM155.775 108.107C154.756 108.13 153.817 108.154 152.952 108.175C147.963 108.375 145.861 109.463 146.057 109.283C146.282 109.267 148.749 108.213 152.951 108.123C154.094 108.099 155.349 108.076 156.707 108.057C156.727 108.099 156.763 108.085 155.775 108.107ZM136.998 112.305C137.515 112.074 139.19 111.492 140.321 111.106C140.135 111.199 137.81 112.004 136.998 112.305ZM83.1737 188.298C83.0909 188.183 82.9842 188.042 82.8309 187.749C82.7543 187.592 82.6591 187.414 82.567 187.035C82.5241 186.837 82.477 186.591 82.5077 186.204C82.5327 185.838 82.6993 185.274 83.0512 184.849C83.8176 183.975 84.4733 183.967 84.7981 183.901C85.1535 183.86 85.3677 183.878 85.5628 183.893C85.9428 183.931 86.2117 183.993 86.4687 184.056C87.9392 184.429 89.599 184.866 89.1008 184.76C89.0081 184.741 87.6501 184.407 86.4569 184.104C86.0886 184.021 85.7789 183.917 85.0702 183.923C84.8803 183.932 84.6556 183.945 84.313 184.047C83.9924 184.146 83.4405 184.377 83.0044 184.974C82.5677 185.573 82.5148 186.229 82.5372 186.579C82.5616 186.954 82.6298 187.159 82.6851 187.33C82.9144 187.941 83.041 188.059 83.1185 188.199C83.1954 188.319 83.2145 188.349 83.1737 188.298ZM172.497 117.633C172.485 117.987 172.058 113.41 171.993 113.066C171.887 111.65 172.501 117.255 172.497 117.633ZM112.96 121.31C112.202 121.654 109.983 122.479 108.564 123.026C109.194 122.736 111.755 121.771 112.96 121.31ZM123.235 117.442C123.148 117.477 121.157 118.224 121.073 118.254C119.43 118.822 125.048 116.713 123.235 117.442ZM121.695 111.303C121.702 111.375 121.814 112.976 121.817 113.034C121.872 114.469 121.534 109.657 121.695 111.303Z" fill="white"/>
</svg>
