<svg width="124" height="145" viewBox="0 0 124 145" fill="none" xmlns="http://www.w3.org/2000/svg">
<path d="M56.2077 88.3424C56.2423 88.7698 56.3383 90.4905 56.386 91.2303C56.2724 90.3944 56.0849 86.8071 56.2077 88.3424ZM24.8359 139.327C24.8962 139.356 24.9571 139.386 25.0188 139.414C25.5507 139.657 26.0834 139.894 26.6199 140.126C26.1302 139.896 25.593 139.64 25.0399 139.371C23.3105 138.554 21.9826 137.077 21.2522 136.174C21.0788 135.964 21.5675 136.474 21.1574 135.983C21.0457 135.849 20.9729 135.77 20.912 135.71C20.8085 135.603 20.7259 135.526 20.5988 135.384C20.4642 135.213 20.3219 135.135 19.9387 134.415C19.865 134.222 19.7101 134.055 19.6437 133.293C19.6185 132.93 19.705 132.176 20.226 131.576C20.7409 130.988 21.2826 130.833 21.6007 130.754C22.2481 130.626 22.5285 130.691 22.8148 130.718C23.0895 130.755 23.3165 130.806 23.5389 130.862C25.3352 131.32 28.0715 132.007 29.2172 132.261C35.1102 133.615 40.9104 134.449 46.4433 133.085C40.9114 134.135 46.0978 133.391 47.909 132.779C47.9593 132.764 48.0059 132.749 48.0482 132.734C48.172 132.685 48.2184 132.665 48.7223 132.389C49.2043 132.082 50.2582 131.579 51.8757 129.287C53.7195 126.17 52.4544 129.38 54.837 123.521C52.863 127.985 54.8898 123.657 55.8878 119.876C55.9082 119.802 55.9453 119.669 55.9939 119.489C56.4107 118.238 57.0352 113.733 57.1829 111.555C57.2543 110.719 57.2905 109.434 57.3634 108.313C57.414 107.541 57.4844 106.957 57.5543 105.804C57.5913 105.194 57.6283 104.582 57.6677 103.968C57.6903 103.521 57.8712 102.69 58.5601 102.069C59.2444 101.466 59.8954 101.387 60.2797 101.348C61.0508 101.306 61.4104 101.423 61.7726 101.499C62.4586 101.669 62.9581 101.851 63.4511 102.013C64.3907 102.336 65.3412 102.594 65.716 102.575C67.1561 102.605 69.0617 101.178 70.7232 99.3805C70.7377 99.3652 70.7524 99.3493 70.7674 99.3326C70.7535 99.3514 70.7405 99.3689 70.7281 99.3851C69.936 100.306 70.2257 100.037 70.7915 99.4446C71.184 99.0977 71.78 97.7552 71.8137 97.6485C72.0432 97.1294 71.6979 98.1032 71.3243 98.7532C70.9528 99.4001 70.626 99.7076 71.074 99.2001C72.3612 97.3166 73.1079 93.918 73.7962 90.9093C73.2172 93.4391 74.4064 87.5094 74.6494 86.4097C74.5244 86.6615 75.4637 82.0895 76.3394 77.5842C77.0081 74.1717 77.5661 70.7757 77.6993 69.7861C77.7555 69.3094 77.2414 72.4032 78.332 65.2112C78.4473 64.4319 78.4464 64.7327 78.5009 64.3223C78.5335 64.0772 78.6124 62.5746 78.9009 61.0016C79.0007 60.4261 78.6074 64.14 79.6432 56.0074C79.1442 58.9618 80.7126 47.0218 81.1474 42.956C81.1916 42.568 81.2229 42.2906 81.2495 42.0538C81.2082 42.3627 81.1692 42.6403 81.1256 42.9537C81.094 43.1769 81.0614 43.4069 81.028 43.643C81.0603 43.3873 81.0886 43.1586 81.1135 42.9524C81.355 40.9222 81.3416 40.5095 81.3891 39.9712C81.4451 39.2906 81.505 38.5168 81.524 37.798C81.5283 37.6252 81.5297 37.448 81.5258 37.2971C81.5255 37.1588 81.501 36.9849 81.5201 37.0834C81.5292 37.114 81.5369 37.1739 81.6129 37.3479C81.6679 37.4583 81.6926 37.5405 81.8927 37.7909C81.9947 37.9088 82.0867 38.0113 82.3052 38.1657C82.52 38.3147 82.8025 38.4441 83.1149 38.5015C83.4323 38.5624 83.757 38.538 83.9961 38.4783C84.2146 38.4251 84.3841 38.3482 84.5141 38.2758C84.7452 38.1444 84.854 38.0365 84.9202 37.9736C85.0547 37.8376 85.0768 37.7923 85.0974 37.7646C85.144 37.6847 85.0517 37.8409 84.9932 37.9736C84.697 38.5477 84.5933 39.4871 84.5274 40.3569C84.3947 42.8402 84.5005 42.871 84.4743 45.9033C84.4865 45.1768 84.5032 44.4602 84.5271 43.7467C84.5087 45.7939 84.5422 47.8597 84.5898 49.9453C84.5906 49.981 84.5915 50.0167 84.5923 50.0525C84.5905 50.0161 84.5888 49.9804 84.5871 49.9454C84.4425 46.7686 84.5015 48.4189 84.5629 49.946C84.5925 50.6627 84.6248 51.3741 84.6292 51.4977C84.6521 52.1267 84.5793 51.2307 84.6168 52.2731C84.6213 52.3777 84.658 52.2316 84.7163 53.839C84.8441 57.2119 84.775 56.685 84.8298 58.1014C84.8356 58.2291 84.8544 57.7807 84.9641 60.2271C85.3289 68.0111 84.9296 60.189 84.9151 59.8897C84.8948 59.498 84.8305 62.1775 84.6348 55.5564C84.6984 57.776 84.6382 58.0049 84.6458 58.2537C84.6515 58.4813 84.8219 62.3233 84.8354 62.5382C84.9427 64.428 84.9184 62.7623 84.9433 63.1304C84.9619 63.435 85.1109 68.0728 85.3126 69.1543C85.2861 71.3807 85.123 67.8843 84.9355 64.1629C84.8821 63.6182 85.0427 67.7095 85.0545 67.924C85.3097 73.1965 85.2807 70.2724 85.4081 71.4213C85.4753 72.0246 85.5084 74.1769 85.5079 72.1884C85.7627 76.9732 85.5569 74.074 85.5638 74.3836C85.575 74.8501 85.6917 76.5228 85.6993 76.7327C85.71 77.0411 85.6184 75.9719 85.6709 77.1871C85.6799 77.3887 85.8443 79.3371 85.7377 76.8181C85.91 80.186 85.9479 79.9026 85.9089 81.0518C86.2334 83.3596 85.8898 82.7354 85.9317 83.6533C86.0451 86.0819 86.1566 85.3677 86.1713 85.4956C86.2271 85.987 86.3616 88.3169 86.5013 90.5441C86.6105 92.3028 86.7334 94.0102 86.7994 94.727C86.6964 94.3249 86.5602 92.2514 86.4685 90.5462C86.417 89.6043 86.3733 88.7637 86.3422 88.3874C86.1501 86.0497 86.3281 89.0952 86.3812 90.5519C86.4072 91.2656 86.401 91.5977 86.3016 90.7755C86.409 91.8354 86.5199 92.8792 86.6368 93.932C86.7023 95.8587 86.4243 93.1436 86.9067 98.3182C87.0541 99.1615 86.5769 94.6555 86.7165 95.5566C86.7892 96.0816 87.0649 99.0793 87.0949 99.1452C87.1178 99.1912 86.8486 96.4959 86.9224 96.9182C87.0268 97.8584 88.0648 107.677 87.194 100.212C87.413 102.308 87.3905 103.382 87.6835 105.184C87.9129 106.31 87.0405 99.8716 88.6097 109.501C88.5528 109.735 87.9052 105.682 87.9092 105.559C87.879 105.406 87.8326 106.184 87.8444 106.307C87.8855 106.479 88.5148 111.582 89.8076 113.897C89.9534 114.122 90.0681 114.203 90.1923 114.264C90.3164 114.324 90.4933 114.357 90.6947 114.356C90.9962 114.352 91.2429 114.323 91.4185 114.3C91.1064 114.293 92.4778 114.182 93.976 113.131C95.4809 112.137 96.9268 110.416 97.1867 110.073C97.3292 109.891 96.7312 110.519 96.8856 110.325C97.8947 109.199 100.334 105.643 101.27 103.826C102.348 101.822 102.152 102.041 102.215 101.931C102.669 101.034 102.338 101.767 102.612 101.216C103.068 100.415 105.675 94.5164 105.765 94.1961C105.8 94.1063 105.344 95.0618 105.875 93.753C105.94 93.5919 105.961 93.6321 106.505 92.3168C106.724 91.7862 107.025 91.0183 107.392 89.8805C108.815 85.2466 106.259 93.0437 106.809 91.103C107.924 88.2112 107.725 88.2427 107.971 87.4377C108.051 87.1579 108.689 85.063 109.071 82.6982C108.801 84.3938 108.455 86.0714 108.02 87.7175C108.5 86.1145 109.115 82.8961 109.311 81.514C109.413 80.8405 109.411 81.4111 109.595 79.9382C109.616 79.6226 109.663 78.3789 109.185 82.2188C109.082 82.5154 109.399 80.7056 109.476 79.8492C109.488 79.7196 109.456 79.2057 109.618 78.1217C109.61 77.8556 109.838 80.7553 109.992 73.3466C109.993 73.1093 109.933 73.9329 109.932 73.7008C109.938 73.5454 109.985 71.6558 109.975 71.4396C109.971 71.2243 109.926 72.1442 109.92 71.888C109.89 70.5761 110.026 68.8662 110.026 71.5591C110.049 70.6573 110.058 69.7546 110.052 68.8532C109.961 69.8277 109.987 67.4324 109.902 66.1889C109.247 58.2085 109.592 63.5628 109.442 62.1973C109.129 60.0162 109.556 61.656 109.039 58.4271C109.017 58.2967 109.111 59.05 109.109 59.1588C109.109 59.2122 109.083 59.0726 109.01 58.6033C108.932 58.1372 108.794 57.1348 108.547 56.0268C108.575 56.1125 108.579 56.0341 108.385 55.8538C108.563 56.0098 108.589 56.1155 108.558 56.0236C108.661 56.4174 108.803 57.1887 108.905 57.7963C108.911 57.5288 108.759 56.5806 108.606 56.0105C108.64 56.106 108.549 55.9388 108.354 55.7967C108.167 55.6514 107.958 55.5352 107.916 55.5095C107.779 55.4261 107.646 55.3547 107.526 55.2937C107.448 55.2522 107.138 55.1626 106.986 55.1295C106.809 55.0888 106.687 55.0645 106.503 55.0334C106.136 54.9791 105.545 54.8656 103.496 54.7914C103.099 54.7772 102.229 54.7176 101.364 54.7171C97.775 54.7059 106.115 54.8481 106.141 55.0836C106.439 54.9266 97.4879 54.7341 97.1476 54.7937C95.8302 54.7488 101.244 54.7624 100.208 54.7099C99.9784 54.678 94.5953 54.72 90.036 54.8434C87.6516 54.8726 85.6723 55.3275 84.7914 55.5319C82.0163 56.2045 80.6844 56.5397 80.7254 56.6928C79.8785 56.7864 79.214 57.1305 78.8474 57.2525C74.4759 58.732 74.4715 58.7548 70.7276 60.1245C70.457 60.2242 70.1937 60.3151 69.9509 60.3968C69.48 60.5543 69.0903 60.6747 68.8934 60.7532C68.7261 60.8202 69.0518 60.7588 68.2367 61.0766C67.085 61.5173 60.1144 64.0671 59.5871 64.2389C59.0583 64.4052 62.5125 63.1227 61.8801 63.3079C59.3731 64.2444 56.9928 65.1594 54.477 66.1123C53.4318 66.5082 53.9547 66.2716 53.5036 66.4429C53.316 66.5131 49.7199 67.9225 49.8797 67.8757C50.2445 67.759 61.3646 63.5116 58.4555 64.6828C57.901 64.9048 55.8692 65.5902 56.2234 65.5604C46.272 69.3213 36.3458 73.1465 26.4436 77.037C32.0993 74.7203 38.5343 72.2786 44.5023 69.9661C45.3206 69.6485 48.0923 68.5914 47.7381 68.675C42.6513 70.6171 36.3532 73.0923 31.4741 74.9743C31.3172 75.0347 31.8753 74.7679 31.2871 74.9913C30.1962 75.4045 26.6693 76.8727 26.0699 77.0912C25.9607 77.1295 27.9656 76.274 27.3369 76.4825C25.7185 77.0195 25.402 77.3725 24.0471 77.9081C23.6164 78.0785 22.1912 78.626 20.5312 79.2745C18.1103 80.2186 15.2555 81.3622 14.2426 81.8244C12.4194 82.6447 19.4078 79.7531 18.9073 80.0258C14.2343 82.0038 9.21799 83.8667 5.25294 85.9835C5.1907 86.0204 5.78059 85.7316 4.95133 86.2165C4.65157 86.3973 4.40843 86.5539 4.18229 86.7008C3.9707 86.8383 3.78971 86.9572 3.65164 87.0499C3.58583 87.0935 3.51795 87.1423 3.52544 87.1327C3.52927 87.1281 3.54063 87.1197 3.59611 87.0652C3.63412 87.0214 3.62222 87.0588 3.8104 86.8142C3.89097 86.6809 4.05085 86.5359 4.17506 85.9476C4.18901 85.8886 4.2644 85.3918 4.10145 84.9256C3.95423 84.4372 3.54219 83.9726 3.17638 83.7682C2.41873 83.3642 2.08357 83.483 1.88139 83.4806C1.60048 83.5158 1.5469 83.5466 1.47232 83.5676C1.40702 83.5895 1.38346 83.6002 1.37309 83.6046C1.34727 83.6158 1.33909 83.6206 1.33908 83.6215C1.45921 83.5791 1.77989 83.4172 2.0686 83.2576C2.89399 82.812 5.88491 81.0021 6.29368 80.7786C6.3439 80.7518 5.76104 81.1767 5.6799 81.2275C4.41017 82.0229 3.88027 82.2413 3.77216 82.3047C3.32369 82.5671 2.91155 82.8454 2.50489 83.0782C2.18125 83.2632 1.91421 83.4062 1.64815 83.5422C1.58865 83.5723 1.51244 83.6109 1.45748 83.6371C1.41575 83.659 1.28629 83.7119 1.42475 83.6534C1.46642 83.6386 1.52251 83.6143 1.67812 83.5794C1.71797 83.5709 1.76528 83.5618 1.82536 83.5536C1.82725 83.5538 1.95184 83.5334 2.11974 83.5355C2.29002 83.5409 2.53374 83.5482 2.90358 83.7025C3.26278 83.8429 3.77719 84.2587 3.98785 84.808C4.21368 85.3288 4.12208 85.8946 4.10703 85.9523C4.04397 86.2769 3.95194 86.4469 3.8859 86.5715C3.749 86.8102 3.67278 86.8814 3.61953 86.944C3.58853 86.9779 3.57228 86.9941 3.55523 87.0111C3.52299 87.043 3.505 87.0589 3.49389 87.0689C3.4633 87.0957 3.48877 87.0747 3.51247 87.0578C3.56774 87.0172 3.64957 86.9592 3.74385 86.8937C4.20994 86.5755 3.84637 86.7731 4.10676 86.5874C4.14297 86.5619 4.19124 86.5291 4.25553 86.4873C4.41608 86.3291 6.63837 85.2719 6.84688 85.0578C6.86522 85.0562 5.63247 85.5486 4.08817 86.5595C3.86007 86.7095 3.56665 86.9091 3.43104 87.0135C3.42838 87.0131 3.40105 87.0453 3.51655 86.9323C3.53521 86.9003 3.60424 86.8897 3.82858 86.5038C3.88361 86.3979 3.95332 86.2567 4.00904 86.0189C4.02258 85.9593 4.0347 85.8934 4.04358 85.8202C4.05521 85.7355 4.06785 85.5333 4.04386 85.3495C4.00792 84.9689 3.78539 84.4711 3.45405 84.1659C2.75072 83.5506 2.26032 83.6346 2.03995 83.6186C1.91412 83.6227 1.84553 83.6345 1.83531 83.6354C1.81108 83.6387 1.78905 83.6422 1.76878 83.6457C1.4692 83.7053 1.43977 83.74 1.42327 83.7419C1.35737 83.7709 1.443 83.7329 1.49202 83.707C1.60966 83.6471 1.76534 83.5625 1.90061 83.4878C2.51062 83.1494 3.1478 82.7774 3.83102 82.3754C5.2093 81.5628 6.63937 80.7012 8.10472 79.8124C11.0058 78.0518 13.856 76.2955 15.7877 75.0981C16.8753 74.4238 17.7166 73.8983 18.017 73.7056C17.2938 74.1459 16.4908 74.6351 15.7714 75.0718C14.8696 75.6202 14.0131 76.1397 13.1377 76.6697C13.9942 76.1529 14.872 75.611 15.7625 75.0574C18.2314 73.5223 20.4216 72.1278 20.7028 72.0849C32.8798 64.5236 45.0448 56.8823 57.1439 49.1828C59.3112 47.8145 58.1777 48.6553 61.7145 46.3587C60.7813 46.9195 59.8451 47.4816 58.912 48.041C60.7467 46.9003 68.8234 41.7621 70.1069 40.9024C70.2741 40.7909 70.4658 40.5638 72.4629 39.2604C74.2458 38.0959 74.556 37.9717 75.5201 37.3591C76.3222 36.8491 77.2047 36.2521 77.4471 36.0979C77.6308 35.9813 77.7256 35.9675 78.1648 35.6885C79.5464 34.8096 78.3676 35.4468 79.8144 34.6534C79.485 34.8755 79.1443 35.1049 78.8195 35.3236C80.5077 34.2405 82.7813 32.8123 80.3672 34.4361C79.9499 34.7163 80.2896 34.4466 79.9757 34.6528C67.6536 42.7047 77.5571 36.3524 81.8163 33.4687C82.5381 33.0377 85.2989 31.2115 87.2425 29.9053C88.3911 29.1345 89.2088 28.5795 89.3028 28.5212C89.5989 28.341 88.5633 29.0964 89.9757 28.19C90.281 28.0208 98.3956 22.3679 95.5103 24.4597C94.9278 24.8919 90.9933 27.5711 90.0542 28.2024C92.3575 26.8059 97.4324 23.0662 98.0102 22.6487C100.341 21.0249 93.5878 25.8998 98.8517 22.1989C102.879 19.3225 99.0611 21.9658 100.583 20.8274C101.453 20.198 105.96 16.9316 105.767 16.9099C107.271 15.7262 106.422 16.4625 106.612 16.3208C106.808 16.1868 109.698 13.8204 110.614 13.0272C110.727 12.9329 110.416 13.2829 110.535 13.1866C110.783 13.0162 113.399 10.5829 113.473 10.4607C113.536 10.3946 112.894 10.9508 113.132 10.6992C113.322 10.5062 114.398 9.42637 115.145 8.60151C115.547 8.16331 115.856 7.81444 115.896 7.7625C115.957 7.68066 115.593 8.08545 115.128 8.58535C114.367 9.41249 113.334 10.4359 113.613 10.1015C114.053 9.66511 114.567 9.12509 115.089 8.55C116.213 7.32282 117.309 5.97502 117.799 5.27541C117.633 5.53253 116.445 6.97258 115.995 7.45712C116.183 7.18441 118.652 4.07187 117.865 5.18038C118.355 4.47161 117.985 4.92965 118.244 4.52054C118.317 4.41659 119.005 3.41947 119.113 3.21067C119.132 3.18776 118.404 4.20271 118.529 3.98487C118.806 3.63853 120.68 0.440939 120.81 0.131806C121.245 -0.623872 119.807 2.10674 119.692 2.31714C119.69 2.36858 121.02 0.121216 121.036 0.0732481C121.178 -0.0157815 119.724 2.50518 119.93 2.23628C120.305 1.62898 120.663 1.00455 121.016 0.366104C119.874 2.97004 116.759 6.89828 115.83 7.9258C118.698 4.87394 120.691 1.15859 120.834 1.21195C120.898 1.2529 120.043 2.81779 120.086 2.76108C120.288 2.58386 121.435 0.36877 121.472 0.278329C121.511 0.212051 121.53 0.182281 121.533 0.183926C121.533 0.183926 121.533 0.183927 121.533 0.183928C121.583 0.223457 119.871 3.32693 119.756 3.45375C119.626 3.72335 120.553 2.45215 120.568 2.46077C120.563 2.525 119.226 4.65399 119.725 3.96708C120.254 3.28998 121.35 1.35269 121.385 1.27846C121.639 0.938915 119.696 4.3045 119.598 4.37435C119.583 4.43961 120.743 2.70906 120.773 2.65346C120.818 2.61966 120.021 3.99296 119.694 4.52828C119.461 4.93479 120.244 3.82134 120.113 4.02162C120.069 4.1984 117.844 7.14296 117.692 7.26095C117.525 7.47437 118.114 6.83574 118.041 6.9379C117.942 7.08746 117.148 7.99094 117.261 7.88095C117.397 7.84121 120.347 4.2478 120.298 4.24258C120.366 4.35123 117.304 8.24283 120.22 4.66784C120.244 4.64467 120.839 3.69222 120.853 3.66405C121.253 3.09422 119.436 6.21672 121.708 2.42994C117.336 9.38893 121.292 3.38085 120.719 4.45535C120.532 4.90064 118.598 7.46415 118.569 7.46046C118.811 7.25671 119.416 6.42897 119.643 6.16448C119.788 6.03564 118.022 8.30307 118.455 7.8235C118.708 7.60194 120.56 5.15711 120.605 5.03224C121.309 4.04157 120.512 5.30159 120.68 5.09308C120.806 4.96306 121.796 3.39103 121.812 3.34567C121.875 3.28879 120.582 5.46088 120.265 5.88627C120.048 6.22453 120.941 5.01102 120.785 5.24281C119.889 6.68769 117.485 9.34202 119.79 6.77021C119.933 6.61384 120.703 5.55023 120.721 5.51554C121.231 4.87961 119.832 6.85791 119.576 7.20414C119.175 7.83619 121.271 5.05565 119.537 7.37549C120.912 5.69949 121.616 4.66566 122.837 2.4569C121.174 5.5473 119.615 7.42174 119.337 7.85383C119.003 8.26123 120.06 7.39326 122.159 4.03687C120.825 6.15979 121.003 5.95564 120.575 6.5697C120.324 6.97982 117.924 9.66886 119.157 8.54864C119.32 8.42143 120.666 6.66031 120.281 7.23927C116.907 11.3096 120.257 7.37862 120.249 7.35064C120.274 7.40177 119.095 8.93939 117.444 10.7172C114.812 13.6939 110.605 17.0719 109.561 17.9052C107.615 19.483 105.87 20.9071 105.445 21.2258C104.004 22.2968 105.165 21.3697 104.834 21.5925C104.491 21.8394 100.45 24.8815 100.216 25.028C99.4124 25.5711 100.182 24.9516 100.097 25.0077C99.0899 25.6943 93.5121 29.6117 91.9179 30.6588C91.9776 30.6692 95.1613 28.5027 93.2154 29.9061C90.9614 31.5275 90.7088 31.4813 90.6528 31.5111C90.127 31.8654 89.5902 32.226 89.0421 32.5931C78.9903 39.3122 68.8059 45.8605 58.6157 52.3659C58.801 52.361 65.7763 47.8164 65.9434 47.7201C66.9183 47.1886 55.0685 54.7605 53.5886 55.6515C54.7075 54.9646 55.8224 54.2795 56.9396 53.5919C55.1094 54.8845 50.8529 57.4231 48.1411 59.1932C47.2665 59.7646 48.9841 58.7267 48.9513 58.7507C47.978 59.4158 46.3736 60.3921 47.5321 59.5939C45.1289 61.1759 45.4652 60.8937 43.5915 62.0707C43.4959 62.1307 44.3164 61.6642 42.8552 62.6066C42.1713 63.0483 38.4787 65.3723 38.0117 65.7095C37.8158 65.8514 39.7719 64.8188 39.9317 64.5484C43.9688 62.0895 41.1798 63.6854 42.7338 62.7104C42.9718 62.5608 42.4665 62.9764 46.3629 60.4713C45.699 61.0628 41.1197 63.8226 40.3609 64.3197C38.7809 65.3576 45.4062 61.273 46.543 60.4189C46.0377 60.8715 47.0222 60.1345 48.4837 59.2153C50.0901 58.2047 49.4117 58.6737 50.2764 58.1264C52.6459 56.6257 51.6234 57.1797 53.6134 56.0017C51.5903 57.0234 56.9413 53.8536 58.4997 52.9273C56.0195 54.5216 53.5391 56.1112 51.0544 57.6993C51.203 57.619 51.3516 57.5386 51.5003 57.4581C50.8425 57.8732 50.1893 58.2851 49.5312 58.6998C49.6305 58.6236 49.7305 58.5471 49.8293 58.4713C46.4848 60.6746 45.6122 61.1269 45.3381 61.2993C41.7861 63.5309 37.6677 66.1224 34.0703 68.3767C33.5343 68.712 33.9383 68.5471 29.9704 70.9617C28.7068 71.73 29.8704 70.9363 28.4431 71.8379C26.738 73.0837 26.7165 72.9521 26.1783 73.2875C24.6698 74.2281 23.7394 74.8515 23.6063 74.9349C22.0059 75.9368 19.785 77.3116 17.886 78.4891C17.5375 78.7052 17.2075 78.91 16.8997 79.1012C16.8614 79.1256 17.9557 78.5047 16.6164 79.316C16.1263 79.6118 11.8047 82.0511 8.10156 84.3674C9.07217 83.7966 10.0717 83.2038 11.0312 82.6332C9.92931 83.3239 1.82219 88.1687 3.82072 87.0419C5.12086 86.3604 7.98249 84.4738 8.36088 84.3912C7.8819 84.6731 7.05358 85.1704 5.97294 85.8106C5.43372 86.1294 4.83906 86.4809 4.17422 86.8597C4.02162 86.9464 3.84218 87.0477 3.65386 87.1505C3.56526 87.1989 3.46555 87.2526 3.36257 87.306C3.2448 87.3637 3.18844 87.4055 2.87561 87.53C2.80232 87.5564 2.72005 87.5882 2.5498 87.6264C2.50641 87.6357 2.45641 87.6453 2.39516 87.6541C2.37984 87.6562 2.36378 87.6583 2.34691 87.6604C2.29615 87.6664 2.23107 87.6723 2.15565 87.6744C2.00351 87.6764 1.79805 87.6776 1.47876 87.583C1.17163 87.4927 0.688439 87.2475 0.357769 86.7531C0.0204775 86.2646 -0.0302067 85.6815 0.0128262 85.3551C0.0572224 84.9885 0.154142 84.7868 0.224495 84.6403C0.521961 84.1156 0.597147 84.134 0.636883 84.0735C0.685978 84.0245 0.724086 83.9899 0.758479 83.9595C0.865811 83.8655 0.932355 83.8155 0.985448 83.7744C1.10576 83.6826 1.19579 83.6184 1.28873 83.5524C1.47555 83.4203 1.65452 83.2987 1.83564 83.1778C7.5571 79.7355 14.4785 77.3972 15.2984 76.9744C15.4677 76.9098 14.4384 77.3733 14.6757 77.2822C14.8526 77.2111 18.4943 75.7275 18.9942 75.5464C19.2827 75.4404 17.679 76.1115 17.8196 76.071C17.8622 76.0576 18.3526 75.8644 19.052 75.5863C20.4554 75.0279 22.5702 74.1831 22.7407 74.0787C21.639 74.5371 18.4641 75.7885 20.1105 75.0837C20.3234 74.9927 21.4287 74.5869 21.6892 74.476C23.1081 73.8714 21.0858 74.6635 19.0143 75.4925C17.6383 76.0428 16.242 76.6106 15.8085 76.7866C16.776 76.3787 17.8376 75.9424 19.0054 75.4703C23.1843 73.7801 28.3718 71.7779 32.4464 70.1485C34.5681 69.3635 29.3447 71.4326 31.7441 70.5305C36.7125 68.6655 33.0436 69.9593 33.1894 69.8964C34.4011 69.3756 38.6695 67.9601 38.6115 67.7967C40.4128 67.1259 39.8414 67.3703 42.3667 66.369C42.0295 66.4864 41.6912 66.6043 41.3535 66.7221C44.1299 65.5367 50.1788 63.4881 49.7414 63.6778C48.5566 64.1864 45.4269 65.3031 45.162 65.4077C44.7709 65.5622 43.751 66.1411 39.4047 67.6568C37.6912 68.4463 46.2313 65.101 42.3683 66.6813C44.9877 65.6461 55.852 61.5785 57.3954 60.9485C57.5788 60.8723 56.6713 61.0875 59.3736 60.1326C60.6571 59.6796 57.5853 60.8388 58.179 60.6439C58.9164 60.4032 63.3168 58.743 68.6374 56.7989C76.3376 53.9363 86.433 50.4702 89.9471 50.9149C89.98 50.9141 90.012 50.9133 90.0431 50.9126C90.366 50.9052 90.2488 50.9445 90.564 50.9371C91.5293 50.9135 95.0678 50.7862 96.8125 50.7894C93.2017 50.7661 100.209 50.6594 102.03 50.7438C104.784 50.8398 104.619 50.9254 105.84 51.043C106.818 51.1866 107.773 51.1811 109.284 51.8529C110.291 52.4247 111.628 53.0403 112.29 54.993C113.103 58.5958 113.396 61.91 113.495 64.111C113.657 63.9107 113.816 70.2435 113.681 73.1203C113.641 75.3798 113.48 78.6596 113.737 75.6122C113.526 79.5149 113.007 83.6303 112.14 87.2384C111.996 87.8345 112.16 87.0054 111.908 88.0207C111.883 88.1126 111.897 88.251 111.66 89.12C110.593 92.8297 110.113 93.6193 110.063 93.7582C110.041 93.7954 110.041 93.7757 110.044 93.7505C110.048 93.7154 110.056 93.6702 110.019 93.7405C109.997 93.7817 109.959 93.8647 109.893 94.0194C109.593 94.7179 109.376 95.2257 109.215 95.6069C109.471 94.9869 109.73 94.3509 109.982 93.7253C111.401 90.2437 112.184 86.6121 112.404 85.5213C112.201 86.2827 111.266 90.54 109.951 93.7129C109.424 95.0352 108.943 96.1981 108.652 96.8631C108.619 96.9397 108.686 96.6522 108.653 96.7302C108.652 96.7318 108.652 96.7334 108.651 96.7351C108.33 97.5765 105.922 102.844 106.469 101.784C106.623 101.503 107.771 99.0892 108.976 96.1825C108.655 96.9737 108.954 96.4086 108.898 96.5482C108.236 98.2421 106.323 102.308 105.565 103.723C105.398 104.048 105.441 104.041 105.414 104.095C104.731 105.386 104.925 104.808 104.295 106.174C102.923 108.441 106.613 101.791 106.234 102.21C106.104 102.373 104.305 106.275 101.883 109.872C99.5921 113.552 95.9024 116.42 95.8799 116.37C95.8181 116.396 95.5929 116.535 95.1206 116.784C94.5514 117.097 92.713 117.996 90.802 118.02C89.0231 118.168 87.412 116.888 87.1422 116.489C87.0082 116.337 86.9823 116.462 86.8269 116.262C86.7894 116.212 86.7061 116.099 86.6001 115.93C85.5046 114.428 84.5923 109.665 84.2583 107.757C84.4304 108.896 84.63 110.057 84.8791 111.205C83.5282 104.285 83.8661 105.363 84.1422 107.668C84.1601 107.78 84.1746 107.892 84.193 108.005C84.4485 109.788 84.9742 112.104 84.9927 112.152C84.7025 112.243 83.0313 100.548 83.4703 102.796C83.4898 103.104 84.2077 108.514 83.893 105.829C83.825 105.362 83.3879 101.886 83.3863 101.715C83.2647 100.489 84.2859 108.052 84.2617 107.111C83.9126 105.293 83.6541 102.911 83.4242 100.828C83.3169 99.8563 83.2496 99.6493 83.2363 99.5252C83.057 97.7621 83.2023 98.7507 83.1465 98.1593C83.1112 97.8484 82.7193 94.3699 82.9248 95.0233C82.7548 93.0736 82.6504 91.7252 82.5768 90.7991C82.4095 88.6695 82.4228 89.1231 82.5239 90.8025C82.6335 92.6208 82.8634 95.8625 83.1509 98.8845C82.9007 96.8293 82.6223 92.9154 82.4831 90.8052C82.4727 90.6533 82.4627 90.5101 82.4533 90.3772C82.404 89.6808 82.3793 90.0902 82.2954 88.9182C82.1083 86.4924 81.5226 74.9111 81.397 71.8942C81.508 73.7461 81.5353 73.2014 81.4598 71.7718C81.3849 70.3422 81.3715 71.5468 81.3498 71.2684C81.3234 70.9705 81.0397 64.2556 80.9858 63.141C81.2399 68.1936 81.2412 67.0494 81.0562 62.7615C81.0989 63.3793 81.1423 64.0019 81.1859 64.6189C81.047 62.1066 80.9161 56.81 80.8433 55.3632C80.8311 55.1369 80.8145 55.9515 80.8077 55.8248C80.7403 54.6019 80.6563 50.5453 80.6379 50.0455C80.637 50.0244 80.6361 50.0095 80.6352 50.0013C80.6326 49.9751 80.6306 49.995 80.629 50.0457C80.6185 50.315 80.6237 51.5857 80.5912 50.9995C80.5878 50.9374 80.5875 50.5649 80.5856 50.0468C80.5822 49.3202 80.5758 48.3092 80.5513 47.2953C80.5358 46.6324 80.4984 47.0328 80.4934 46.867C80.4593 45.4824 80.527 46.3152 80.5201 43.7741C80.5713 41.8705 80.3434 40.638 80.9217 37.6682C80.2021 41.9536 80.4988 42.3475 80.4427 41.6257C80.5274 40.8296 80.3234 38.6839 81.3093 36.3145C81.4055 36.1029 81.4989 35.8921 81.6783 35.598C81.7947 35.4358 81.8318 35.2851 82.289 34.9025C82.4091 34.8123 82.5962 34.6784 82.9109 34.5761C83.2007 34.4683 83.785 34.4373 84.1971 34.6124C84.4072 34.6921 84.5963 34.8111 84.7303 34.9209C84.8462 35.0151 84.9388 35.1116 85.014 35.2029C85.1753 35.4049 85.2191 35.4991 85.2792 35.6149C85.4388 35.9577 85.4485 36.0732 85.4805 36.18C85.5079 36.2903 85.5239 36.3661 85.5389 36.4391C85.5699 36.5957 85.5954 36.747 85.6165 36.9773C85.6582 37.46 85.676 38.2575 85.5311 39.961C85.6196 32.852 85.529 40.9242 85.1366 43.379C85.1165 43.5726 85.0985 43.743 85.0839 43.8778C85.072 43.9827 85.0179 44.0065 84.9162 44.9244C84.907 45.0065 84.9563 44.8867 84.8636 45.7404C83.9611 53.7624 84.5136 48.6305 84.3021 50.1473C84.2125 50.7946 83.7811 54.6938 83.6452 55.7416C83.6145 55.9817 83.5925 55.8698 83.4738 56.7999C83.2631 58.4491 83.1042 59.9325 82.9597 61.0203C82.942 61.1478 82.887 61.1444 82.6197 63.2091C82.5442 63.7893 82.4728 64.4436 82.6048 63.6222C83.0454 60.8988 83.6335 55.7091 84.0656 52.6194C84.4682 49.8052 83.3576 58.698 83.2833 59.1555C83.261 59.3255 83.4622 57.5877 83.2232 59.348C83.0192 60.8517 82.7427 63.615 82.3976 65.8523C82.3722 66.0231 82.0271 67.8006 82.0336 67.718C82.0434 67.6398 82.4224 64.8918 82.34 65.2866C82.3311 65.3337 82.079 67.0814 82.0269 67.3055C81.9637 67.584 81.6378 68.3003 81.5759 68.6748C81.4185 69.6299 81.5615 69.0142 81.4644 69.6314C81.264 70.9607 80.4498 75.5468 80.4891 75.711C80.625 74.9462 80.7557 74.1898 80.8837 73.4328C80.1867 77.665 80.5132 75.8604 80.4265 76.4665C80.3286 77.1055 80.2981 76.9308 80.0447 78.2691C80.0401 78.2936 80.0353 78.3186 80.0305 78.344C79.9754 78.6514 78.8809 84.578 78.9247 84.4683C79.5001 81.2002 79.3517 82.411 79.3814 82.2662C79.4928 81.7016 79.587 80.9474 79.7291 80.1879C79.9041 79.2529 80.0154 78.6678 80.092 78.2779C80.2662 77.3862 80.2132 77.7754 80.1368 78.2862C80.0531 78.8397 79.9459 79.5154 80.0541 78.975C80.0895 78.7973 80.1312 78.5449 80.1711 78.2925C80.2279 77.9326 80.2798 77.5697 80.3014 77.4566C80.4175 76.8458 80.4686 76.8494 80.5368 76.4366C80.6926 75.4852 80.4286 76.5797 80.4372 76.5066C80.5468 75.6495 81.15 72.328 80.8858 74.4139C81.1199 73.1744 81.0476 73.0134 81.2434 72.0299C81.6269 70.0829 81.1474 73.0137 81.0251 73.8168C80.7457 75.6907 80.5646 76.7035 80.2658 78.31C80.1057 79.1649 79.9204 80.1585 79.6649 81.5497C79.3994 82.9967 79.1203 84.7121 78.9921 85.3874C78.9179 85.8131 77.9608 89.775 78.1762 89.9452C77.8296 91.4945 77.1196 93.9078 76.6789 95.5265C76.279 96.9795 76.4848 96.5488 76.4515 96.6847C76.4064 96.8898 75.817 98.6657 75.539 99.2962C75.2245 100.023 75.4676 99.675 74.837 100.847C74.4991 101.435 74.1383 101.909 73.7983 102.268C72.7639 103.344 72.689 103.29 72.513 103.458C69.6936 105.787 70.9226 104.813 70.2669 105.329C70.0131 105.439 68.481 106.706 65.7781 106.795C64.2175 106.778 63.0896 106.315 62.0397 105.98C61.5315 105.809 61.0346 105.642 60.7154 105.572C60.576 105.531 60.4202 105.557 60.6899 105.531C60.8157 105.512 61.1928 105.419 61.5107 105.056C61.8199 104.693 61.8525 104.367 61.863 104.242C61.7997 105.228 61.7538 106.041 61.7335 106.481C61.7633 105.73 61.7921 104.981 61.8237 104.24C61.8157 104.321 61.8033 104.43 61.7348 104.605C61.7994 104.429 61.8079 104.319 61.8124 104.239C61.6807 105.619 61.6756 107.041 61.5753 107.062C61.7249 107.365 61.4133 110.387 61.3356 111.303C61.3075 111.663 61.3383 111.637 61.3002 112.089C61.1789 113.848 60.6334 117.859 60.4044 118.854C59.6862 123.106 61.6655 112.308 61.5162 111.525C61.5749 113.14 59.8807 122.829 60.7855 118.382C60.9301 117.69 61.0363 116.473 61.0826 116.09C61.3889 113.51 61.2016 115.543 61.2335 115.343C61.2914 114.999 61.4102 113.302 61.4555 112.86C61.4686 112.713 61.4528 113.669 61.6618 111.235C61.6901 112.418 60.7909 119.327 60.3983 120.323C60.348 120.531 60.5787 119.828 60.3707 120.665C60.236 121.161 59.9628 122.249 59.1457 124.452C59.18 124.39 59.2142 124.327 59.2482 124.265C58.1193 127.445 56.757 130.629 54.3396 133.487C54.5935 133.164 55.8381 131.517 54.1963 133.546C53.1585 134.676 53.9746 133.886 53.8827 133.989C53.6008 134.194 52.3436 136.014 49.1343 137.038C42.1336 139.787 29.4526 137.038 26.7749 136.304C25.8316 136.085 23.7173 135.592 22.4402 135.288C22.2613 135.244 22.1402 135.245 22.2753 135.253C22.3438 135.253 22.5018 135.256 22.7668 135.174C23.0226 135.105 23.3897 134.875 23.547 134.714C23.8968 134.411 24.1735 133.817 24.2033 133.419C24.2463 133.011 24.1815 132.792 24.1464 132.656C24.0633 132.391 24.0303 132.38 24.0355 132.38C24.0468 132.402 24.1737 132.574 24.3363 132.762C25.2709 133.904 26.1143 134.852 27.0308 135.276C28.2374 135.869 29.2761 136.34 29.6896 136.52C30.3736 136.817 29.7458 136.487 30.3528 136.754C30.9191 137 30.3119 136.791 30.4798 136.866C31.5797 137.599 41.8439 140.962 43.4418 138.983C43.6222 138.879 43.7872 138.777 43.9183 138.693C43.8028 138.769 43.6373 138.875 43.4452 138.988C42.8344 139.428 41.045 139.803 39.2211 139.573C37.4302 139.389 35.8573 138.919 35.9286 138.965C35.9636 138.995 37.8328 139.493 38.2167 139.518C38.8544 139.704 41.012 139.783 41.9555 139.585C42.0105 139.577 41.9335 139.609 42.0585 139.607C42.1746 139.595 42.5468 139.592 43.2571 139.277C43.333 139.242 43.4265 139.193 43.5288 139.131C44.2389 138.72 45.4853 137.744 46.6519 136.572C48.8801 135.173 54.3969 123.715 54.7649 119.959C54.874 119.486 54.9422 119.166 54.9628 119.039C54.9649 119.023 54.8241 119.587 54.7249 119.95C54.6413 120.254 54.5903 120.411 54.6908 119.941C54.7044 119.878 54.7206 119.803 54.7396 119.715C55.1668 117.708 54.8968 119.531 55.4247 117.212C55.5791 116.867 56.6156 110.401 56.5491 110.18C56.7026 108.201 55.9901 113.873 55.9378 113.782C55.9906 113.587 56.5606 108.883 56.5419 108.683C56.5659 108.497 56.3201 112.37 56.6881 107.724C56.6373 108.254 56.5806 108.787 56.5176 109.319C56.6889 107.132 56.7478 106.926 56.7878 106.392C56.8903 104.738 56.8427 102.937 56.9598 100.257C56.9897 99.5486 57.0392 100.723 57.0432 100.632C57.0878 99.7893 56.9441 98.69 57.003 97.4081C57.0008 97.3155 57.1719 100.305 56.9823 95.0719C56.9892 95.4373 56.9942 95.7886 56.9986 96.1518C56.9727 95.7339 56.8818 93.7752 56.7716 92.0671C56.6931 90.8203 56.6182 89.6733 56.6015 89.381C56.4784 87.272 56.6658 89.1116 56.5173 86.9945C56.5202 88.359 56.0683 81.9294 56.1695 82.2951C56.01 81.404 55.6934 75.9385 55.5062 73.3689C55.389 71.7489 55.1026 68.4464 55.0696 67.9306C55.0296 67.3051 55.1102 67.4868 55.0417 66.3547C55.0221 66.0286 54.7244 62.6668 54.5785 59.6938C54.5508 59.1268 54.5763 57.8996 54.6821 58.972C54.8623 60.7962 55.0244 64.2529 55.0882 64.2048C55.156 64.1505 54.7724 59.497 54.6926 58.2447C54.3236 52.4588 54.6388 55.7988 54.6502 55.6415C54.6781 55.2533 54.4575 52.0881 54.4549 51.9576C54.4401 51.4092 54.6367 53.6448 54.674 53.6782C54.7202 53.7149 54.5945 50.6628 54.6564 51.3531C54.7428 52.3444 54.8706 55.1469 54.8873 55.3301C55.0937 57.6342 54.972 54.4597 54.963 53.5834C54.9601 53.3161 55.0592 54.3754 55.0484 54.1532C54.887 50.7969 54.8538 53.4541 54.7177 51.2236C54.5997 49.2416 54.8351 51.7825 54.8352 51.7179C54.833 51.6432 54.754 50.4213 54.7115 49.598C54.693 49.2455 54.6808 48.9684 54.681 48.8605C54.6812 48.8192 54.7084 49.1071 54.7528 49.5954C54.8952 51.1709 55.2361 54.7986 55.2675 54.5862C55.1399 52.9188 55.0147 51.2479 54.8974 49.5861C54.8755 49.2758 54.8543 48.9724 54.8336 48.6756C54.8609 48.6133 54.8958 49.0227 54.9323 49.5839C54.984 50.3825 55.0383 51.4708 55.0553 51.6523C55.1109 52.2442 55.039 50.5831 55.0689 50.6612C55.0858 50.6861 55.2711 52.6328 55.1769 50.876C55.1629 50.6077 55.1232 50.1555 55.0801 49.5745C55.0291 48.8793 54.9718 47.9995 54.9308 46.8289C55.0158 48.0539 55.0818 48.9235 55.133 49.5711C55.3343 52.0592 55.2635 50.534 55.2231 49.5653C55.2092 49.2373 55.1991 48.9769 55.2019 48.9304C55.2064 48.8569 55.2419 49.2098 55.2776 49.5618C55.3289 50.0567 55.3787 50.529 55.3219 49.559C55.3009 49.1988 55.2698 48.7077 55.2197 47.9297C55.3576 47.725 55.273 48.0358 55.3779 49.2735C55.3883 49.396 55.3968 49.4874 55.4037 49.5538C55.437 49.8639 55.4343 49.5924 55.4416 49.5513C55.4427 49.5448 55.444 49.5437 55.4458 49.5511C55.4602 49.6039 55.4962 50.1971 55.6604 52.8677C55.6891 52.6633 55.5859 50.9363 55.5039 49.5474C55.4496 48.6347 55.4045 47.8922 55.4009 47.7971C55.393 47.5885 55.4901 48.5954 55.4794 48.234C55.3586 44.0044 55.4721 46.9012 55.4862 45.68C55.484 45.5668 55.3011 41.5706 55.4785 44.6181C55.6005 46.6516 55.6946 48.2722 55.7717 49.5302C55.9035 51.6591 55.9952 52.8161 56.1681 53.3804C56.1101 52.128 56.0273 50.7998 55.9411 49.5194C55.744 46.6129 55.5297 43.9457 55.4859 43.0928C55.3877 41.1886 55.5283 43.1505 55.5294 42.9208C55.5277 42.8355 55.4466 41.196 55.4506 41.1754C55.5346 40.1879 55.7279 46.0423 55.9487 49.5189C55.9862 50.1516 56.0243 50.7315 56.0562 51.1452C56.039 50.6082 56.0207 50.0449 56.0054 49.5153C56 49.3395 55.9948 49.1659 55.9897 48.9944C56.0007 49.1655 56.0119 49.3387 56.0233 49.5142C56.0743 50.299 56.1287 51.1097 56.1833 51.9066C55.9265 47.2744 56.1888 51.7545 56.4003 52.8875C56.4476 53.148 56.1891 50.1061 56.5082 53.5674C56.3522 51.0101 56.4331 51.8222 56.2462 49.5199C56.298 49.5716 56.7084 54.7715 56.8853 56.8194C56.496 50.5636 56.5149 52.7821 56.3253 49.4949C56.2952 48.957 56.2619 48.2969 56.2237 47.4442C56.087 46.2832 56.2841 49.2727 56.259 49.0278C56.1656 48.1572 56.0958 46.1074 55.8281 43.635C55.7853 43.2337 55.8037 44.9395 55.6784 42.4199C55.6633 42.134 55.6514 40.5269 55.6582 40.5514C55.7108 40.7648 55.7658 42.3492 55.7897 42.4196C55.8091 42.4748 55.7179 40.7131 55.7242 40.6974C55.7782 40.6444 55.8111 42.1772 55.8195 41.9527C55.8325 41.4688 55.6914 35.0909 56.019 43.4117C55.6409 36.5124 55.8898 42.5257 56.0799 45.2232C56.1256 45.91 56.1704 46.0922 56.2407 47.0603C56.2999 47.8744 56.3522 48.7617 56.3969 49.4903C56.4203 49.8735 56.4418 50.2133 56.4596 50.4504C56.5136 51.1471 56.3275 47.1567 56.6898 52.9226C56.6499 51.9548 56.5779 50.7636 56.4976 49.4838C56.3312 46.846 56.1311 43.8667 56.0798 41.9299C55.9426 36.1286 56.4 45.9655 56.508 46.9961C56.5274 47.2688 56.5187 46.3521 56.5325 46.5345C56.5424 46.6672 56.6207 48.0372 56.7123 49.4701C56.8113 51.0274 56.9298 52.6943 56.9692 52.9768C57.045 53.5275 56.8277 50.9249 56.8574 50.7518C56.872 50.6386 57.3882 57.377 57.1525 53.7265C57.0775 52.5616 56.9467 50.9375 56.8408 49.4619C56.7164 47.7333 56.6242 46.2148 56.6616 45.7813C56.7362 47.0045 56.815 48.2278 56.8968 49.4583C57.0612 51.9227 57.2427 54.4221 57.4252 56.8893C57.3247 54.8608 57.2265 52.8275 57.1364 50.7989C57.428 54.9656 57.6403 58.5478 57.9923 62.4982C57.4428 53.0029 58.3289 65.5681 58.3591 65.7103C58.3725 65.7539 58.2125 62.0082 58.1901 61.4086C58.4756 64.7131 59.2402 74.776 58.9479 68.8784C58.9947 69.9487 59.2639 72.5314 59.2673 72.4967C59.3061 72.1634 58.8495 66.5213 58.974 67.4389C59.1181 68.4997 59.1394 70.0021 59.2671 71.6425C59.9179 80.0651 60.0861 77.7227 60.6181 86.1896C60.6184 86.0202 60.6185 85.8482 60.6187 85.679C60.7531 87.7223 60.8837 89.7752 61.0024 91.8122C61.4069 99.0269 61.5409 106.37 60.4027 113.701C60.2096 115.31 59.7183 118.083 59.0341 120.986C58.1677 124.853 56.6429 128.994 55.3664 131.51C55.0086 132.44 52.3543 136.665 52.0464 136.915C51.6463 137.489 53.7984 134.314 52.8057 135.732C52.7018 135.882 51.4807 137.71 50.0263 139.272C48.609 140.852 46.9078 142.094 47.1828 141.923C48.054 141.358 50.1944 139.183 50.4919 138.796C51.2984 137.746 49.7555 140.4 45.7552 142.927C37.0463 146.675 28.4198 140.45 27.6638 140.623C28.1613 140.866 28.6646 141.104 29.1709 141.336C27.7582 140.734 26.3782 140.09 25.0167 139.418C24.9557 139.388 24.8955 139.358 24.8359 139.327ZM56.7332 94.494C56.6779 93.9888 56.6298 93.0556 56.5735 92.079C56.5307 91.3309 56.4861 90.5501 56.4411 89.9525C56.3012 88.0829 55.8671 84.906 56.177 86.2682C56.3202 88.2085 56.4594 90.1515 56.5876 92.0782C56.6418 92.8947 56.6901 93.6913 56.7332 94.494ZM49.675 132.324C50.583 130.851 50.0293 132.09 49.2072 133.241C49.1066 133.367 48.3837 134.259 49.675 132.324ZM55.7541 114.874C55.746 114.951 55.4457 116.472 55.4286 116.526C55.1142 117.882 56.0127 113.291 55.7541 114.874ZM57.8725 127.497C56.9494 129.474 57.7509 128.098 58.2364 126.837C58.2678 126.758 57.9325 127.367 57.8725 127.497ZM57.2028 128.899C56.412 130.388 54.5168 133.429 56.0776 131.067C56.249 130.84 57.2614 128.835 57.2028 128.899ZM52.4917 126.786C52.4588 126.992 51.7321 128.652 51.3772 129.334C51.3647 129.305 52.2253 127.501 52.4917 126.786ZM27.1389 136.34C27.1932 136.336 24.491 135.685 22.4653 135.187C22.3711 135.164 22.2919 135.149 22.2514 135.144C22.2175 135.136 22.1943 135.151 22.38 135.141C22.4725 135.129 22.64 135.129 22.9819 134.972C23.3116 134.849 23.9069 134.279 24.0337 133.716C24.1753 133.17 24.0883 132.9 24.0596 132.745C24.0217 132.594 23.991 132.531 23.9745 132.492C23.9107 132.363 23.9703 132.471 24.0099 132.513C24.054 132.568 24.0977 132.617 24.1179 132.636C24.0784 132.59 24.0257 132.524 23.9875 132.472C23.9546 132.446 23.9152 132.297 24.0464 132.645C24.0748 132.749 24.1341 132.911 24.1229 133.268C24.1291 133.603 23.9018 134.29 23.4745 134.656C23.0626 135.023 22.7578 135.083 22.5898 135.127C22.4142 135.164 22.3396 135.162 22.2905 135.164C22.129 135.156 22.3061 135.166 22.4597 135.21C24.4715 135.716 27.0822 136.348 27.1389 136.34ZM44.8135 137.887C44.6387 137.934 42.1785 138.184 42.2507 138.184C43.4611 138.167 45.6262 137.789 44.8135 137.887ZM61.8291 108.931C61.828 108.808 61.5568 110.515 61.9263 106.44C61.9799 105.842 61.8892 107.984 61.908 107.772C61.9484 107.326 61.9759 106.973 61.9945 106.692C61.8932 108.59 61.7523 110.583 61.7252 110.774C61.6087 111.675 61.8326 108.985 61.8291 108.931ZM73.0938 103.168C73.1965 103.053 73.5139 102.731 73.8771 102.342C74.7676 101.403 75.3506 100.163 75.5301 99.7924C75.5712 99.6924 75.4662 100.161 75.948 98.9873C76.2968 98.0493 75.7315 99.4151 76.3745 97.6135C76.9589 95.817 76.2444 98.2402 76.2845 98.0885C76.4007 97.8657 77.1723 95.0905 77.1729 95.1853C77.205 95.2575 76.3304 98.2177 75.981 98.9941C75.5722 99.9761 76.1814 98.7925 75.3759 100.453C74.7877 101.506 75.0245 100.875 74.8931 101.096C74.8459 101.164 74.4977 101.779 73.9284 102.39C73.2725 103.103 72.4873 103.834 73.0981 103.164C73.0967 103.166 73.0952 103.167 73.0938 103.168ZM62.0223 106.179C62.0167 106.32 62.0078 106.489 61.9945 106.692C62.004 106.52 62.0133 106.347 62.0223 106.179ZM56.9346 99.7645C56.9185 100.712 56.8473 97.9059 56.8405 96.8361C56.8759 96.8058 56.9449 99.6203 56.9346 99.7645ZM62.0572 104.424C62.0614 104.365 62.0656 104.309 62.0696 104.256C62.0595 104.417 62.0104 104.739 61.754 105.089C61.5055 105.431 61.1557 105.614 60.9732 105.676C60.5918 105.796 60.5691 105.75 60.5386 105.762C60.5105 105.764 60.5639 105.774 60.5472 105.777C60.5494 105.779 60.4636 105.786 60.6082 105.788C60.6884 105.773 60.8754 105.82 61.3536 105.53C61.5833 105.384 61.8311 105.113 61.9589 104.844C62.0838 104.59 62.1136 104.386 62.1236 104.259C62.0958 104.793 62.0606 105.468 62.0223 106.179C62.0543 105.385 61.9894 105.361 62.0572 104.424ZM38.2167 139.518C38.1141 139.493 38.0494 139.47 38.0443 139.451C38.3141 139.52 38.34 139.534 38.2167 139.518ZM32.341 137.743C30.3062 137.009 34.4064 138.591 34.3956 138.499C34.3866 138.493 32.424 137.785 32.341 137.743ZM58.9164 124.934C58.8255 125.132 59.8724 121.931 58.2406 126.54C59.226 124.115 58.2303 126.69 58.2479 126.656C58.3785 126.582 59.8245 122.448 60.0514 121.519C60.2042 120.779 59.2171 124.274 58.9183 124.929C58.9177 124.93 58.9171 124.932 58.9164 124.934ZM81.7508 71.3657C81.7069 71.9279 81.4088 73.7122 81.203 74.9131C81.2572 74.3393 81.5614 72.5679 81.7508 71.3657ZM15.3145 80.1357C8.27309 84.5114 7.2656 84.9109 13.7695 81.0099C13.8805 80.9438 15.7394 79.8531 15.3145 80.1357ZM53.904 61.9146C54.6614 61.7078 52.2492 62.6383 50.652 63.216C50.2897 63.3469 48.9392 63.7814 50.4453 63.1889C50.4315 63.2926 52.7902 62.4289 53.904 61.9146ZM60.6641 105.721C61.1276 105.687 63.4791 106.849 65.5583 106.931C64.1694 107.031 61.3366 105.856 60.6641 105.721ZM13.0228 77.9935C13.8433 77.6614 14.3537 77.3817 14.2147 77.4325C13.5898 77.6602 12.0907 78.3378 13.0228 77.9935ZM61.5611 110.996C61.529 111.106 61.7381 107.737 61.8222 107.511C61.7755 108.224 61.5918 110.912 61.5611 110.996ZM81.3661 73.6277C81.2682 74.1403 81.6726 71.4656 81.8098 70.6577C81.8333 70.7306 81.435 73.2852 81.3661 73.6277ZM26.0885 72.7232C26.8164 72.4416 28.6352 71.7273 28.8329 71.621C29.0675 71.4924 26.4007 72.5549 26.0885 72.7232ZM102.91 23.4433C103.016 23.385 100.565 25.2555 99.4612 26.0006C97.3253 27.4584 102.838 23.506 102.91 23.4433ZM5.36002 81.3553C3.02513 82.4315 5.61209 81.2226 5.48538 81.2201C4.43876 81.6793 2.22547 82.9164 1.86899 83.2279C1.789 83.2862 1.78346 83.2961 1.87757 83.2408C1.98857 83.177 2.25011 83.0092 2.72372 82.7355C3.25964 82.4112 4.64381 81.6835 5.36002 81.3553ZM7.48524 80.4064C7.73016 80.2721 9.34485 79.4961 7.9215 80.1219C7.26195 80.4131 6.22941 80.9607 7.48524 80.4064ZM87.4326 34.1507C86.6243 34.6578 87.7429 33.906 89.2465 32.8984C91.2975 31.5272 94.1266 29.6152 94.2571 29.5312C94.3857 29.4499 94.4702 29.3982 94.5191 29.37C94.8351 29.1324 96.387 28.0598 96.6137 27.9589C96.119 28.2975 94.8551 29.1712 94.6853 29.2806C94.618 29.324 94.5661 29.357 94.5333 29.3769C94.1944 29.6445 91.2705 31.6238 89.2751 32.9411C88.3207 33.5726 87.5523 34.0754 87.4326 34.1507ZM73.3413 43.3112C75.414 41.8657 75.8763 41.7391 75.6944 41.8633C73.4096 43.4178 74.8619 42.346 74.7889 42.3873C74.6168 42.4892 73.0103 43.5898 73.348 43.3069C73.3457 43.3083 73.3435 43.3097 73.3413 43.3112ZM84.5514 36.0317C84.6309 35.9776 86.4172 34.8004 86.4885 34.7552C87.9688 33.8343 82.9434 37.1456 84.5514 36.0317ZM78.2316 89.7688C78.5542 88.276 78.3082 89.7557 78.0745 90.7508C78.0535 90.8359 77.9411 91.0893 78.2316 89.7688ZM8.60619 79.8994C8.93293 79.7318 17.3229 76.3231 16.7913 76.4652C16.0705 76.7339 6.55693 80.6802 8.60619 79.8994ZM71.5244 55.4684C70.0079 56.0154 71.6341 55.345 72.4442 55.0859C72.7483 54.9883 71.8932 55.3354 71.5244 55.4684ZM61.0315 115.571C60.844 117.269 60.7558 116.896 60.9966 115.44C61.0057 115.383 61.0383 115.504 61.0315 115.571ZM59.568 59.8378C64.6945 57.8673 63.5595 58.5421 56.8491 60.9874C57.0513 60.8992 57.2595 60.8088 57.4653 60.7193C49.7502 63.6075 56.9313 60.8992 58.8131 60.1774C59.5327 59.9006 58.9149 60.0898 59.5629 59.8394C59.5646 59.8389 59.5663 59.8384 59.568 59.8378ZM79.492 52.7224C84.6771 51.272 74.8504 54.2582 72.182 55.3253C74.801 54.3075 78.2852 53.1127 73.5486 54.6948C80.4406 52.2732 77.6095 53.3601 77.8774 53.2608C78.208 53.1559 79.2619 52.7866 79.492 52.7224ZM66.2808 57.3871C65.9881 57.4998 63.8305 58.2619 63.0439 58.5624C64.112 58.0976 68.1786 56.6505 66.2808 57.3871ZM58.5395 52.8618C58.6762 52.7195 59.0541 52.4385 60.5964 51.4743C60.1357 51.7963 59.1684 52.4374 58.5395 52.8618ZM56.8875 92.7599C56.8765 92.5562 56.8636 92.3174 56.8492 92.0624C56.7779 90.7927 56.6779 89.1623 56.6781 89.8006C56.6793 89.862 56.7667 91.2187 56.827 92.0638C56.856 92.4693 56.8787 92.759 56.8875 92.7599ZM32.9722 70.1279C33.2231 70.0335 39.6338 67.5419 37.4018 68.3557C36.7266 68.5996 30.8983 70.884 32.9722 70.1279ZM4.02517 86.7706C3.82582 86.8786 3.59358 87.0308 3.0004 87.3171C2.93355 87.346 2.92679 87.3531 2.76904 87.4102C2.72577 87.4252 2.67533 87.4417 2.60567 87.4601C2.57069 87.4693 2.53072 87.4789 2.48215 87.4885C2.45784 87.4934 2.43135 87.4982 2.40191 87.5028C2.38719 87.5051 2.37174 87.5073 2.35542 87.5095C2.34254 87.511 2.31832 87.5151 2.24354 87.5211C2.11108 87.5288 1.9341 87.5403 1.63887 87.4727C1.35793 87.4072 0.874202 87.2149 0.517041 86.7216C0.152631 86.2414 0.118951 85.5966 0.164053 85.3413C0.187386 85.1589 0.228373 85.0224 0.267736 84.9138C0.434449 84.4972 0.548097 84.4075 0.623576 84.3064C0.946904 83.9596 0.931076 84.0149 1.02798 83.9284C1.15532 83.8286 1.26499 83.7496 1.36195 83.68C1.56321 83.5362 1.74842 83.4096 1.91494 83.2969C2.27069 83.0555 2.55555 82.8767 2.56861 82.864C2.61595 82.8195 2.2994 83.004 1.89802 83.2715C1.71382 83.394 1.50893 83.5334 1.28675 83.6944C1.16298 83.7858 1.07983 83.8417 0.874344 84.0148C0.849147 84.0365 0.803335 84.0766 0.755745 84.1226C0.694716 84.1992 0.697931 84.1195 0.393747 84.5777C0.323282 84.7048 0.220469 84.8748 0.150574 85.233C0.142325 85.2793 0.135824 85.322 0.129589 85.3815C0.119373 85.4811 0.115307 85.5935 0.123827 85.7184C0.139538 85.9663 0.214132 86.2728 0.374294 86.5538C0.700954 87.142 1.2733 87.4151 1.58842 87.4905C1.92302 87.5743 2.11488 87.558 2.2566 87.5497C2.40848 87.5349 2.36629 87.5372 2.4155 87.5305C2.47832 87.5203 2.52813 87.5095 2.57092 87.4992C2.73288 87.4594 2.83095 87.4186 2.87069 87.4035C3.02632 87.3406 3.10521 87.2987 3.17243 87.2652C3.67827 87.0002 3.94592 86.8267 4.02517 86.7706ZM56.5356 86.4835C56.5306 86.317 56.2591 82.5106 56.2653 82.9348C56.2796 83.734 56.5574 87.0437 56.5356 86.4835ZM79.2046 84.293C79.2621 83.9826 79.3913 83.5718 79.4129 83.4608C79.4656 83.2075 80.5138 77.4594 80.1713 79.6584C80.1211 80.0309 78.5318 88.3039 78.2761 89.3877C78.1268 89.7919 78.9055 86.2593 79.0585 85.3975C79.0858 85.248 79.0488 85.1369 79.2044 84.2957C79.2045 84.2948 79.2046 84.2939 79.2046 84.293ZM66.4842 47.7212C66.6791 47.5466 72.4388 43.8005 72.4021 43.8847C70.4332 45.1656 68.4599 46.4446 66.4842 47.7212ZM63.5417 49.5993C62.2904 50.3635 65.1752 48.5043 66.0361 47.9673C66.0621 47.9862 63.7227 49.4893 63.5417 49.5993ZM12.0361 78.6599C12.6673 78.385 10.6804 79.1445 11.1123 78.9509C11.3796 78.8293 12.8421 78.2474 13.2762 78.0477C13.4004 77.9892 11.9353 78.5292 11.4995 78.7151C10.9073 78.9667 11.5105 78.7654 10.8471 79.0442C8.67636 79.9633 6.74474 80.7459 4.69211 81.7553C4.51031 81.845 5.96058 81.1663 4.37677 81.951C4.19739 82.0496 3.20138 82.4845 1.93167 83.322C1.75545 83.4378 1.57383 83.5595 1.37627 83.6987C1.28122 83.766 1.17442 83.8421 1.04681 83.9413C0.956849 84.0196 0.953622 83.9891 0.666017 84.2901C0.59452 84.3801 0.494429 84.4615 0.329632 84.8162C0.289777 84.9089 0.246438 85.0246 0.212408 85.1826C0.203996 85.2221 0.196297 85.2643 0.189802 85.3094C0.186545 85.3321 0.183636 85.355 0.181011 85.3796C0.176067 85.426 0.172512 85.4752 0.170981 85.5273C0.164574 85.7343 0.192127 85.9965 0.296649 86.2694C0.49693 86.8384 1.04574 87.2571 1.39866 87.3756C1.76506 87.5113 1.99003 87.5052 2.14932 87.5047C2.22415 87.503 2.30936 87.4941 2.33291 87.4909C2.35038 87.4888 2.36688 87.4865 2.38256 87.4842C2.41391 87.4796 2.44199 87.4747 2.46764 87.4697C2.51889 87.4599 2.56066 87.4499 2.59705 87.4404C2.66949 87.4214 2.72126 87.4044 2.76565 87.389C2.92151 87.3323 2.93311 87.3233 3.00192 87.2932C7.20695 84.8024 9.82122 83.272 14.6884 80.2373C14.4827 80.3487 10.8726 82.5193 10.6406 82.6569C9.52813 83.3279 8.16833 84.1502 6.69658 85.0278C5.96538 85.4633 5.18607 85.9258 4.38491 86.3872C3.97427 86.6212 3.60854 86.837 3.09162 87.099C3.0237 87.1318 2.94283 87.1734 2.79494 87.2317C2.74258 87.2511 2.65771 87.2863 2.49429 87.3237C2.45163 87.3331 2.40173 87.3429 2.33817 87.3515C2.34613 87.3501 2.17788 87.3765 1.99449 87.3649C1.80352 87.3488 1.49754 87.3279 1.08425 87.0556C0.662605 86.8002 0.314559 86.1481 0.311894 85.7038C0.304377 85.592 0.308017 85.4911 0.317143 85.4018C0.32283 85.3473 0.328577 85.3098 0.33597 85.268C0.35052 85.1871 0.368617 85.1174 0.387493 85.0561C0.46523 84.8133 0.543196 84.6937 0.601175 84.6014C0.850628 84.2557 0.834808 84.3206 0.893038 84.2533C0.935145 84.2132 0.978333 84.1757 0.999562 84.1576C1.19092 83.9985 1.27131 83.9453 1.39074 83.8582C1.6044 83.7056 1.80493 83.5699 2.00715 83.4353C4.81347 81.6129 7.57581 80.5869 9.64538 79.6628C10.8197 79.1635 10.2475 79.3715 10.7458 79.1596C11.1468 78.9905 10.6947 79.244 12.0361 78.6599ZM56.9568 93.4085C56.9692 93.1656 56.9502 92.6681 56.9145 92.0585C56.8662 91.2304 56.7886 90.1904 56.7407 89.4194C56.7231 89.7384 56.8096 90.9444 56.8812 92.0605C56.9129 92.5538 56.9405 93.026 56.9568 93.4085ZM37.4585 66.0754C36.8811 66.441 35.1359 67.5146 34.9883 67.6286C34.823 67.7606 37.351 66.1918 37.4585 66.0754ZM84.2258 51.6189C84.2326 51.5532 84.4295 49.9497 84.4378 49.8929C84.6586 48.4689 84.0676 53.2748 84.2258 51.6189ZM80.7666 59.4316C80.8238 60.6588 80.8954 61.8847 80.864 62.2966C80.8374 61.5231 80.726 59.287 80.7666 59.4316ZM85.167 112.737C85.1892 112.556 85.5687 114.418 86.518 115.982C86.9193 116.637 87.4572 117.115 87.7138 117.304C87.5991 117.233 86.9615 116.756 86.4865 116.002C85.598 114.603 85.1922 112.885 85.167 112.737ZM58.2077 52.8335C60.1038 51.6292 59.6523 51.8012 60.8787 51.0705C61.0784 50.9516 61.8237 50.7171 59.6988 51.9833C59.3167 52.2108 60.7565 51.2355 58.2077 52.8335ZM55.7619 61.3972C55.2416 61.6399 53.5692 62.2619 52.4379 62.69C52.6818 62.5628 54.9607 61.7039 55.7619 61.3972ZM56.1049 79.6081C56.0908 78.5544 55.693 73.7043 55.7407 74.9079C55.7485 75.0803 56.0592 78.9273 56.1049 79.6081ZM66.9768 106.626C68.421 106.221 67.3851 106.643 65.7768 106.701C64.3834 106.7 63.2667 106.284 62.6813 106.133C63.0742 106.241 64.3701 106.745 65.7773 106.742C66.4336 106.735 66.9154 106.637 66.9768 106.626ZM83.1602 99.8245C83.167 99.9052 83.3867 102.06 83.3976 102.149C83.5308 103.899 82.9177 97.869 83.1602 99.8245ZM80.4568 46.7255C80.4806 47.1072 80.5048 48.5498 80.536 50.0481C80.5659 51.549 80.5997 53.1217 80.5987 53.6795C80.5579 53.2127 80.4983 51.5953 80.4644 50.0499C80.4189 48.0753 80.4233 46.1945 80.4568 46.7255ZM50.4177 57.8162C51.7709 56.9565 53.061 56.1521 54.314 55.3759C54.0696 55.5708 50.5735 57.7472 50.4177 57.8162ZM84.1422 107.668C84.1601 107.78 84.1746 107.892 84.193 108.005C84.1748 107.887 84.1582 107.775 84.1422 107.668ZM20.0045 76.8647C18.8817 77.5458 19.1214 77.4677 19.2023 77.4198C20.0611 76.9105 21.3086 76.0727 20.0045 76.8647ZM56.9592 91.8884C56.9865 91.4258 56.8033 89.1783 56.7297 87.8841C56.712 88.2536 56.8918 90.8456 56.9592 91.8884ZM85.1755 51.2958C86.8844 50.9201 79.9446 52.6969 78.6174 53.2166C78.4693 53.1715 84.831 51.2308 85.1755 51.2958ZM60.5562 105.423C60.5707 105.409 60.5335 105.435 60.789 105.372C60.9093 105.337 61.1988 105.226 61.4379 104.933C61.6777 104.638 61.7214 104.347 61.7291 104.234C61.6808 105.058 61.6425 106.109 61.6795 105.717C61.6993 105.51 61.7406 104.821 61.7723 104.236C61.7677 104.36 61.6927 104.741 61.3896 105.046C61.0862 105.347 60.8235 105.397 60.7202 105.421C60.513 105.45 60.5668 105.425 60.5562 105.423ZM75.3128 54.3137C74.706 54.5381 73.269 55.0036 73.7609 54.802C74.3892 54.5438 75.4676 54.2555 75.3128 54.3137ZM21.1919 74.9869C21.4653 74.8836 24.9651 73.4472 23.4957 73.9839C22.4818 74.3539 22.33 74.4807 22.0972 74.5735C21.8241 74.6796 16.1568 76.867 21.1919 74.9869ZM113.854 67.5085C113.78 66.0569 113.683 64.2898 113.54 62.7714C113.64 63.3823 113.881 66.8843 113.854 67.5085ZM72.0518 103.774C71.9465 103.849 71.0269 104.719 69.711 105.477C68.4236 106.273 66.5783 106.675 65.7759 106.644C65.2408 106.641 65.1425 106.642 65.7762 106.661C66.1196 106.659 66.7192 106.641 67.5532 106.427C67.7627 106.406 69.4466 105.821 70.5638 104.992C71.7094 104.196 72.4901 103.4 72.0518 103.774ZM58.2077 52.8335C57.9685 52.9855 57.6915 53.1595 57.3693 53.3598C57.6879 53.1588 57.9659 52.9851 58.2077 52.8335ZM36.6322 66.4699C37.0513 66.1704 34.8492 67.5429 34.1988 67.9698C34.0191 68.1273 36.5748 66.5114 36.6322 66.4699ZM113.486 62.66C113.388 61.7777 113.232 60.1908 113.08 59.1069C113.149 59.3062 113.491 62.2611 113.486 62.66ZM91.6331 118.048C93.8273 117.834 95.9051 116.404 95.9009 116.363C95.9375 116.345 96.0193 116.299 96.1517 116.215C96.3128 116.15 97.9177 114.859 98.5088 114.233C100.654 111.858 95.707 118.338 90.8053 118.132C89.4382 118.186 88.4105 117.599 88.3048 117.524C88.1613 117.368 88.8758 118.094 90.8035 118.07C91.6021 118.041 92.6618 117.884 93.8592 117.395C93.1676 117.696 92.4142 117.926 91.6331 118.048ZM80.6758 39.757C80.7337 39.056 81.0539 37.0453 81.4279 36.3679C81.5251 36.1372 81.5562 36.0593 81.4487 36.276C81.4379 36.2985 81.4245 36.3266 81.4092 36.3595C81.2004 36.7265 80.8152 38.0165 80.7409 38.8324C80.636 39.6775 80.6193 40.2452 80.6758 39.757ZM81.8059 77.3753C81.7972 77.0819 81.6281 74.4283 81.6025 74.3603C81.6569 75.8895 81.8414 78.7005 81.8059 77.3753ZM85.2856 40.0258C85.2334 40.6438 85.2283 41.451 85.2386 41.372C85.3261 40.7517 85.3999 38.9802 85.2856 40.0258ZM54.1805 55.1757C53.4023 55.6471 50.984 57.2404 50.4756 57.6162C50.3719 57.6714 50.0986 57.831 49.6029 58.1286C49.6044 58.1277 49.6059 58.1267 49.6073 58.1258C48.9381 58.5437 29.1235 70.9884 42.4572 62.701C42.8735 62.4418 42.2813 62.7671 43.9783 61.7053C44.0908 61.635 44.1641 61.6282 44.5118 61.4107C45.3031 60.9166 49.5502 58.2561 50.3823 57.6961C50.3928 57.6967 50.4507 57.667 50.5703 57.5976C51.6397 56.9778 54.7831 54.8112 54.1805 55.1757ZM82.1031 82.6448C82.0844 82.1057 81.978 80.4157 81.9391 80.2429C81.9703 81.0819 82.1452 83.8886 82.1031 82.6448ZM71.7285 103.896C71.2697 104.279 70.4145 104.948 69.6727 105.379C68.9373 105.815 68.371 106.04 68.851 105.85C69.604 105.729 72.834 103.027 71.7285 103.896ZM81.2147 65.6843C81.4729 71.936 81.2871 67.176 81.3752 68.1307C81.321 67.3149 81.2674 66.4972 81.2147 65.6843ZM78.5921 39.6169C77.7583 40.1489 78.6832 39.4442 79.6371 38.8758C79.9351 38.6985 79.0648 39.315 78.5921 39.6169ZM115.276 13.0757C114.609 13.6553 117.646 10.6225 116.516 11.8578C116.47 11.9163 115.325 13.0407 115.276 13.0757ZM89.8978 32.0769C89.6439 32.2769 89.4269 32.4396 89.0941 32.6707C88.7392 32.9174 88.2501 33.243 87.3981 33.8023C89.3752 32.4692 88.1333 33.2566 89.0671 32.6304C89.252 32.5062 89.5182 32.329 89.8978 32.0769ZM95.8799 116.37C95.8917 116.365 95.9016 116.36 95.9009 116.363C95.888 116.369 95.8818 116.371 95.8799 116.37ZM84.7065 45.9372C84.5761 46.7162 84.3255 48.8922 84.4447 48.2489C84.4562 48.192 84.7044 46.2531 84.7065 45.9372ZM50.4756 57.6162C50.5676 57.5672 50.5255 57.5998 50.3823 57.6961C50.3723 57.6954 50.4071 57.6669 50.4756 57.6162ZM80.9844 38.0143C80.8606 37.9988 80.5579 41.5438 80.5992 41.6589C80.619 43.6108 80.61 39.6614 80.9844 38.0143ZM60.7696 114.604C60.7537 114.78 60.9647 113.662 60.9958 112.97C61.0215 112.435 60.8354 113.948 60.7696 114.604ZM95.2532 28.4139C96.1038 27.8298 97.3572 26.959 97.5952 26.8412C97.0225 27.2347 95.2457 28.4557 95.2532 28.4139ZM114.019 14.1881C113.118 15.0971 110.898 16.9847 109.444 18.1197C109.394 18.107 113.16 15.0534 114.019 14.1881ZM56.6132 53.6558C56.5385 53.7007 54.2916 55.1078 54.6195 54.9482C55.098 54.7163 57.2566 53.2731 56.6132 53.6558ZM61.2774 109.411C61.3316 108.219 61.0581 110.951 61.0065 112.222C60.9896 112.872 61.2765 109.61 61.2774 109.411ZM83.842 52.7475C83.6735 54.3077 84.1915 50.459 84.2106 49.9107C84.1219 50.6278 83.9026 52.1924 83.842 52.7475ZM81.6891 72.9745C81.5676 68.0402 81.4745 70.7355 81.5375 71.6088C81.5464 71.7318 81.6922 73.0951 81.6891 72.9745ZM55.463 67.3956C55.3944 66.7009 55.523 69.3005 55.5889 69.632C55.63 69.838 55.5067 67.8384 55.463 67.3956ZM109.215 95.6069C109.136 95.7991 109.056 95.9912 108.976 96.1825C109.034 96.0384 109.112 95.85 109.215 95.6069ZM81.7839 66.8307C82.4565 63.4115 82.2631 63.7538 82.3075 63.4548C82.4 62.8083 82.6547 61.3112 82.8103 60.0906C82.6423 61.4905 82.4701 62.8888 82.2926 64.2884C82.4799 63.1884 83.8033 53.6082 83.7855 53.3995C83.7822 53.1071 83.4138 56.1267 83.3971 56.2159C83.3755 56.3445 83.203 56.7971 83.1622 57.0774C83.1066 57.5404 82.0145 65.5513 81.7839 66.8307ZM81.1823 62.6681C81.2035 63.4626 81.1688 63.6868 81.196 64.0568C81.2053 64.1825 81.2489 64.202 81.2791 64.6279C81.2464 63.9764 81.2141 63.3215 81.1823 62.6681ZM80.996 73.0174C80.7909 73.9846 81.5017 69.622 81.523 69.4793C81.6735 68.7357 81.1714 72.2309 80.996 73.0174ZM81.717 36.0402C81.7312 36.0149 81.7701 35.935 81.8679 35.7732C81.9188 35.6921 81.9783 35.5915 82.1119 35.4285C82.1909 35.3384 82.2602 35.2451 82.4847 35.0767C82.5823 35.0067 82.759 34.8893 83.0222 34.8112C83.2781 34.7237 83.7681 34.7065 84.1218 34.8601C84.8978 35.2295 84.9453 35.5829 85.061 35.76C85.1526 35.9592 85.1832 36.0841 85.2102 36.1885C85.2622 36.4048 85.2798 36.5628 85.2946 36.7017C85.323 36.9923 85.3286 37.2457 85.3308 37.488C85.3335 38.4485 85.2674 39.3033 85.286 39.286C85.3123 38.9405 85.38 38.1377 85.3584 37.198C85.3492 36.9541 85.3419 36.7206 85.2827 36.3744C85.2641 36.2744 85.2475 36.1916 85.2071 36.0546C85.1861 35.9852 85.1625 35.9159 85.1283 35.8335C85.0856 35.7316 85.0322 35.6214 84.9467 35.4931C84.8218 35.3208 84.7215 35.1634 84.3598 34.9406C84.0277 34.7349 83.5074 34.6596 83.1472 34.7478C82.486 34.9216 82.3513 35.1578 82.217 35.2676C81.9793 35.5194 81.9199 35.6406 81.8428 35.7605C81.7734 35.8761 81.7258 35.967 81.685 36.0471C81.6037 36.2081 81.5531 36.3233 81.5164 36.4078C81.4394 36.589 81.4316 36.6183 81.5289 36.4134C81.5684 36.3325 81.6215 36.2196 81.717 36.0402ZM81.306 65.1566C81.3545 66.3451 81.4181 68.5933 81.4704 68.3335C81.4703 68.3317 81.4702 68.3299 81.4701 68.3282C81.4142 67.2693 81.3595 66.2149 81.306 65.1566ZM61.4041 105.34C61.1655 107.532 61.3585 106.493 61.5137 104.557C61.5056 103.968 61.4428 104.981 61.4041 105.34ZM60.8254 112.405C60.8264 113.01 59.9305 119.426 60.0877 118.464C60.2142 118.107 60.6734 114.414 60.6713 114.249C60.7031 113.993 60.6425 115.171 60.8334 113.211C60.8032 113.323 60.8518 112.193 60.8254 112.405ZM61.2251 107.156C61.007 109.342 61.1115 109.848 61.2245 108.197C61.2673 107.551 61.2558 106.846 61.2251 107.156ZM65.4165 106.334C64.2982 106.325 62.1148 105.463 60.9532 105.189C62.2316 105.507 63.6507 106.304 65.7718 106.365C66.2958 106.358 66.8144 106.289 67.3096 106.169C67.5439 106.083 66.6252 106.352 65.7715 106.345C65.6453 106.346 65.5201 106.341 65.4094 106.333C65.4117 106.334 65.4141 106.334 65.4165 106.334ZM122.451 3.61575C121.511 5.14318 123.568 1.56432 123.617 1.40977C123.886 0.972737 122.889 2.93349 122.451 3.61575ZM55.7853 53.7541C55.7677 53.2643 55.7996 52.9545 55.6997 51.8921C55.7328 52.9704 55.7663 54.0251 55.8027 55.1046C55.9512 55.9262 55.8033 54.2784 55.7853 53.7541ZM55.8417 49.6572C55.8541 49.8104 55.9378 48.9695 55.973 50.9258C55.9827 51.4306 55.9087 50.6921 55.8173 49.5273C55.6661 47.6184 55.4815 44.6031 55.4792 43.8024C55.5778 45.1709 55.7282 48.1534 55.8317 49.5264C55.8351 49.5717 55.8384 49.6153 55.8417 49.6572ZM55.8636 37.1198C55.8593 37.0305 55.9273 39.7348 55.9414 40.0464C55.9591 41.6989 55.772 37.5521 55.8636 37.1198ZM56.1789 45.7597C56.1325 44.4968 56.3131 47.3062 56.3519 48.1475C56.3299 48.2248 56.1855 45.962 56.1789 45.7597ZM109.07 15.3098C107.946 16.103 107.11 17.0245 108.733 15.6713C108.806 15.6104 109.119 15.2758 109.07 15.3098ZM56.0518 39.7512C56.0701 41.0215 55.947 38.2039 55.9743 37.3836C55.9901 37.3061 56.0418 39.5562 56.0518 39.7512ZM108.178 15.7429C106.716 16.822 107.345 16.6079 107.539 16.4688C108.308 15.9237 110.726 13.8043 111.188 13.3486C107.559 16.4836 108.855 15.2158 108.178 15.7429ZM101.553 20.9449C100.184 21.9709 103.729 19.4486 104.347 18.8914C103.669 19.4078 101.949 20.651 101.553 20.9449ZM93.0748 26.8201C92.3271 27.3249 90.0678 28.8346 89.6979 29.1258C90.5352 28.5551 92.7824 27.0672 93.0748 26.8201ZM91.3038 27.8984C90.1041 28.6538 89.9058 28.9595 91.2276 28.0119C91.2809 27.9737 91.3496 27.8705 91.3038 27.8984ZM84.6084 32.3283C83.7945 32.8004 82.9591 33.5179 84.2464 32.6702C84.6258 32.4197 84.6945 32.2789 84.6084 32.3283ZM106.233 16.9637C105.166 17.758 103.861 18.8745 106.125 17.1548C105.347 17.7751 104.544 18.4025 103.761 19.0059C106.773 16.8102 106.466 16.8392 107.311 16.1893C108.48 15.2708 108.464 15.4203 108.251 15.6395C109.174 14.8369 113.152 11.4957 115.112 9.26534C113.343 11.1902 110.117 13.9601 108.055 15.5646C107.471 16.0269 106.924 16.4968 106.417 16.8865C105.608 17.5059 106.291 16.9211 106.237 16.9604C106.236 16.9615 106.234 16.9626 106.233 16.9637ZM75.7699 38.1307C73.4153 39.5861 74.9571 38.7489 76.2534 37.8749C76.3084 37.8368 75.8287 38.0943 75.7699 38.1307ZM56.4469 36.1764C56.3706 39.7225 56.1996 37.1085 56.6921 44.7668C56.4346 41.5394 56.6225 44.5959 56.5552 43.9634C56.4997 43.4516 56.4293 41.5778 56.4301 42.6673C56.3838 41.2302 56.1873 34.9033 56.475 34.9312C56.4745 34.9334 56.474 34.9355 56.4735 34.9377C56.5191 34.823 56.5183 35.1011 56.4469 36.1764ZM92.8593 26.5294C92.0173 26.9021 91.8518 27.3395 90.2939 28.2276C88.4206 29.7493 95.7831 24.4902 96.7614 23.9855C88.6819 29.582 102.175 20.4077 96.4117 24.1248C101.061 20.9636 97.8997 23.0378 98.5901 22.5118C99.3475 21.9378 101.94 20.1068 101.773 20.1472C101.772 20.1482 101.77 20.1493 101.769 20.1503C100.199 21.3028 98.6145 22.4386 97.015 23.5672C98.6527 22.581 95.3813 24.8323 94.1865 25.5168C93.7543 25.8484 93.312 26.1859 92.8593 26.5294ZM101.964 20.2631C101.806 20.3855 98.3833 22.8655 98.6069 22.7328C99.105 22.4197 103.931 18.8769 101.964 20.2631ZM115.96 8.21881C115.789 8.40795 115.599 8.61539 115.397 8.8335C114.436 9.88384 113.222 11.0676 112.755 11.5603C113.578 10.7905 114.704 9.65602 115.417 8.85167C115.649 8.59228 115.837 8.37334 115.96 8.21881ZM51.944 53.2936C50.3206 54.3745 55.3939 51.1653 53.9017 52.0551C53.8288 52.0989 52.0239 53.2408 51.944 53.2936ZM89.2118 29.0382C87.5597 30.0879 88.4157 29.71 89.6041 28.8573C89.6757 28.8059 89.2828 28.9932 89.2118 29.0382ZM56.4709 39.0714C56.493 39.1982 56.7139 44.5028 56.782 45.463C56.6983 44.9107 56.395 38.9222 56.4709 39.0714ZM117.559 6.12987C116.843 6.93033 116.023 7.84241 115.247 8.69494C113.913 10.1752 112.711 11.3928 112.499 11.5879C112.18 11.8825 112.637 11.3678 112.564 11.4337C112.426 11.6182 108.878 14.7018 108.678 14.8307C108.551 14.9384 109.279 14.458 108.529 15.1064C109.647 14.1909 113.56 10.805 115.325 8.76672C115.941 8.09866 116.349 7.63215 116.42 7.5481C116.632 7.27819 114.894 9.18801 117.556 6.13386C117.557 6.13253 117.558 6.1312 117.559 6.12987ZM111.675 12.321C112.575 11.5636 110.125 13.7661 109.485 14.2553C108.095 15.384 111.587 12.4391 111.675 12.321ZM105.498 17.3543C105.195 17.5866 102.447 19.6328 102.217 19.8446C103.573 18.9267 106.196 16.8463 105.498 17.3543ZM73.8034 39.0728C73.0496 39.5692 70.9617 40.8834 70.8601 40.9917C71.6131 40.4989 73.705 39.18 73.8034 39.0728ZM57.8617 57.2195C57.7849 55.7251 58.0445 59.1787 58.1041 60.1888C58.0833 60.2382 57.868 57.3505 57.8617 57.2195ZM88.7462 28.9365C88.6436 29.0025 88.0952 29.3715 87.2602 29.9317C84.568 31.7458 78.9748 35.4452 78.0099 36.0878C78.9865 35.4787 84.6851 31.7391 87.2924 29.9798C88.0514 29.4699 88.5439 29.1355 88.631 29.0735C88.7457 28.9915 88.8025 28.9006 88.7462 28.9365ZM107.708 15.3071C108.44 14.6524 108.973 14.2909 109.067 14.2146C110.023 13.4487 111.861 11.7882 111.492 12.1846C109.933 13.6074 106.243 16.6098 107.708 15.3071ZM73.0247 39.292C69.9378 41.3178 75.905 37.5125 75.1021 37.9661C75.0429 38.001 73.3483 39.08 73.0247 39.292ZM89.7441 28.2446C90.4136 27.772 99.3266 21.654 100.709 20.5994C99.4905 21.5779 98.4507 22.2478 96.7353 23.4574C96.2789 23.7788 96.4183 23.7211 96.3694 23.7555C95.5638 24.3203 96.1476 23.8662 95.6443 24.2165C95.3536 24.4385 88.837 28.9422 89.7441 28.2446ZM108.123 14.926C108.628 14.5671 113.559 10.1636 113.671 9.92173C115.182 8.62843 108.648 14.6922 108.123 14.926ZM88.8748 28.7465C89.8112 28.0117 94.2614 25.046 91.2588 27.1508C90.9519 27.3652 89.7277 28.148 88.8748 28.7465ZM73.3081 39.0038C73.15 39.1043 69.921 41.1732 69.8721 41.2385C70.3542 40.9431 75.0547 37.9061 73.3081 39.0038ZM74.9226 37.8366C74.8466 37.8867 75.6295 37.4449 74.117 38.42C73.9912 38.5006 73.7256 38.599 71.8334 39.853C71.4527 40.1053 70.8772 40.5276 70.9217 40.5019C72.9576 39.3076 78.8048 35.268 74.9226 37.8366ZM108.184 14.8105C107.888 15.0151 108.516 14.4074 109.14 13.9388C109.407 13.7372 108.965 14.1744 108.184 14.8105ZM63.0482 45.5899C64.905 44.3431 58.9902 48.1216 58.696 48.3215C58.9025 48.2263 62.8622 45.7159 63.0482 45.5899ZM58.4844 60.6806C58.4843 60.6788 58.4842 60.6771 58.4841 60.6753C58.6104 62.5565 58.4855 61.3949 58.4906 61.4828C58.7242 65.4774 58.7378 64.4157 58.7942 65.038C58.9162 66.3796 58.7901 66.169 59.0023 68.4259C58.6595 64.6939 58.9384 68.0936 58.9071 68.2019C58.7784 68.633 58.6148 63.2216 58.4459 61.3632C58.4225 61.1072 58.5113 63.0211 58.4482 62.3586C58.2422 60.2053 58.0062 53.487 58.4844 60.6806ZM109.593 13.5493C110.287 13.0207 114.908 8.59966 113.714 9.8047C113.606 10.0625 108.723 14.4343 109.593 13.5493ZM94.3631 113.122C95.4401 112.293 92.8595 114.103 92.3631 114.157C92.1202 114.309 93.8988 113.564 94.3631 113.122ZM86.829 97.6436C86.6541 95.7729 86.3354 93.8225 86.5476 96.1418C86.5705 96.3986 86.8233 97.8524 86.829 97.6436ZM78.0376 57.288C79.9139 56.7173 79.764 56.652 78.4081 57.1087C77.9232 57.2738 77.9806 57.3055 78.0376 57.288ZM105.746 94.6428C105.668 94.8305 104.791 96.8954 104.843 96.8324C105.195 96.0826 106.258 93.4866 105.746 94.6428ZM77.4598 57.503C78.5524 57.1068 76.631 57.6767 75.3168 58.2283C76.0099 57.9752 77.3353 57.5473 77.4598 57.503ZM85.3559 30.803C84.575 31.3796 82.2639 32.8938 80.9279 33.7814C80.7538 33.8263 84.4315 31.4349 85.3559 30.803ZM87.6431 105.521C87.353 103.791 87.8576 107.518 87.8712 107.158C87.8645 107.12 87.651 105.586 87.6431 105.521ZM18.6527 79.9798C19.8384 79.4613 16.0136 80.9582 17.0863 80.5915C17.1305 80.5759 18.595 80.0048 18.6527 79.9798ZM1.61803 83.6795C1.55031 83.7146 1.48171 83.7496 1.42643 83.7755C1.41749 83.7797 1.40522 83.785 1.41697 83.7796C1.45913 83.7729 1.34491 83.7695 1.80454 83.6723C1.84757 83.6679 1.83091 83.661 2.04323 83.6506C2.22284 83.6536 2.5038 83.632 2.98358 83.8673C3.47089 84.0682 4.01951 84.8574 4.01937 85.4262C4.03095 85.5647 4.02529 85.696 4.0143 85.7943C4.00811 85.8507 3.99989 85.9029 3.99053 85.9512C3.97174 86.0479 3.9486 86.1292 3.92509 86.1992C3.72167 86.7241 3.60535 86.7672 3.541 86.8595C3.46628 86.9408 3.44559 86.9564 3.42602 86.9748C3.39736 87.0001 3.40496 86.9928 3.41567 86.9848C3.53148 86.8955 3.81411 86.7 4.069 86.5307C5.13561 85.8043 6.49212 85.1496 5.55202 85.6039C5.43743 85.6617 4.71106 86.05 4.05046 86.5029C3.89212 86.6094 3.73646 86.7168 3.60447 86.8118C3.53998 86.8582 3.4784 86.9038 3.43418 86.9382C3.41195 86.9555 3.39572 86.9689 3.39173 86.9728C3.40248 86.958 3.35604 87.0267 3.56142 86.8026C3.60736 86.7467 3.66949 86.6749 3.76124 86.5147C3.80659 86.4329 3.86081 86.3274 3.91346 86.1651C3.93942 86.0838 3.96464 85.9876 3.98251 85.8708C3.98719 85.8393 3.99012 85.8189 3.99489 85.7724C4.001 85.7108 4.00463 85.6441 4.00421 85.5724C4.0034 85.4292 3.98615 85.2643 3.93908 85.0887C3.77067 84.3207 2.95209 83.7917 2.57901 83.7339C2.17783 83.6355 1.96837 83.6776 1.86713 83.685C1.78178 83.6956 1.72257 83.708 1.6752 83.7188C1.49633 83.7626 1.45635 83.7867 1.44581 83.7889C1.41145 83.8023 1.41874 83.7992 1.42667 83.7945C1.44029 83.7868 1.48881 83.7608 1.50998 83.7481C1.56397 83.7169 1.61294 83.6867 1.61803 83.6795ZM58.8454 65.1456C58.8677 64.6105 59.08 67.6919 59.1017 68.1318C59.1099 68.3044 58.8165 65.8459 58.8454 65.1456ZM89.9061 54.5622C89.9447 54.5609 89.9859 54.5596 90.0296 54.5583C91.1295 54.5267 93.5808 54.4893 94.0273 54.4516C93.0061 54.474 90.6545 54.4948 90.029 54.5343C89.8992 54.5427 89.849 54.5522 89.9061 54.5622ZM89.2852 113.035C88.8529 111.818 88.3351 109.275 88.3801 109.916C89.0465 112.583 88.2825 109.702 89.2852 113.035ZM71.3176 59.7641C72.0933 59.4878 72.6454 59.1996 72.5604 59.2261C71.7198 59.4891 70.5343 60.0141 71.3176 59.7641ZM110.101 74.8406C110.074 74.8827 109.925 77.4361 109.966 77.0969C109.99 76.9878 110.139 74.8023 110.101 74.8406ZM56.5298 49.473C55.4981 50.092 58.5779 48.0903 59.5121 47.5378C59.9877 47.2997 56.6595 49.3955 56.5298 49.473ZM50.0812 67.7163C49.9868 67.8086 53.8065 66.3154 52.2807 66.8516C51.8968 66.9863 50.1154 67.6839 50.0812 67.7163ZM13.6111 82.1588C16.0886 81.0192 5.56769 85.4996 8.35996 84.384C8.52701 84.2888 13.3921 82.2422 13.6111 82.1588ZM6.94521 80.4259C6.53151 80.6682 6.6496 80.3899 8.35501 79.4307C8.58113 79.3033 7.57573 79.9718 7.76028 79.8719C7.87559 79.8117 11.5102 77.6146 11.6879 77.4982C11.8612 77.3861 11.6239 77.4647 11.7994 77.3492C11.9938 77.2216 14.2728 75.8762 15.4364 75.1564C15.5328 75.0967 15.6262 75.0389 15.7164 74.9829C17.6463 73.7849 17.8633 73.5977 18.031 73.4938C18.5633 73.1631 19.4546 72.6498 20.5327 71.9794C25.9164 68.6345 34.0937 63.4635 38.4032 60.8683C34.6114 63.2067 31.0045 65.5198 27.2503 67.8814C28.3115 67.1021 21.7428 71.4094 25.5703 68.8856C24.6579 69.4703 20.1255 72.3127 15.7449 75.029C11.5985 77.6034 7.60502 80.0404 6.94981 80.4231C6.94827 80.4241 6.94674 80.425 6.94521 80.4259ZM86.3202 90.2516C86.4529 91.4071 86.0671 85.4706 85.9712 84.9711C86.0054 85.7573 86.3011 90.1023 86.3202 90.2516ZM90.4278 114.157C90.4888 114.163 90.5558 114.154 90.6882 114.132C91.0509 114.069 91.6101 114.075 92.8647 113.522C92.8665 113.521 92.8682 113.52 92.87 113.519C93.4554 113.235 92.8103 113.605 92.9206 113.558C92.9655 113.588 94.7938 112.494 93.3021 113.437C92.1493 114.055 92.0876 113.944 92.1602 113.917C92.2319 113.862 92.4346 113.781 91.8284 113.967C91.7596 113.988 91.2239 114.149 90.6895 114.175C90.2909 114.201 90.1925 114.108 90.1931 114.128C90.1867 114.137 90.413 114.206 90.495 114.21C90.7336 114.248 90.6235 114.275 90.6571 114.279C90.6635 114.279 90.6752 114.279 90.6925 114.279C90.9409 114.28 91.9004 114.183 92.8689 113.689C93.8405 113.223 94.7727 112.434 95.0297 112.242C95.179 112.168 92.5644 114.428 90.6937 114.32C90.3715 114.329 90.2329 114.265 90.1366 114.213C90.042 114.16 89.98 114.091 89.9681 114.077C89.9248 114.021 90.0227 113.977 89.9855 113.913C89.9824 113.908 89.9599 113.88 89.9228 113.824C89.6379 113.545 88.9074 111.273 88.8577 110.919C88.8294 110.794 88.8109 110.705 88.7971 110.637C88.8651 111.15 88.2356 108.168 88.3087 108.246C88.3211 108.293 88.7323 110.367 88.7572 110.425C88.7636 110.457 88.7687 110.485 88.7737 110.511C88.719 110.185 89.371 112.997 89.9572 113.802C90.1854 114.112 90.2666 114.061 90.194 114.005C90.357 114.09 90.3658 114.087 90.3228 114.102C90.2937 114.11 90.2141 114.122 90.4278 114.157ZM96.9615 109.996C96.8388 110.161 96.7155 110.323 96.5919 110.48C98.836 107.878 101.001 104.22 102.842 100.395C103.308 99.4203 102.716 100.516 103.336 99.2414C103.829 98.2201 104.394 97.0875 104.155 97.6613C104.1 97.8019 103.104 99.8961 102.593 100.928C101.081 103.971 101.492 103.212 101.41 103.394C101.312 103.592 100.251 105.431 99.6389 106.396C98.0856 108.771 97.4153 110.059 94.7171 112.415C96.2253 111.003 95.3576 111.773 96.9615 109.996ZM33.9904 74.1234C33.876 74.2065 31.5538 75.0821 30.7221 75.4151C30.8371 75.3309 33.1566 74.4549 33.9904 74.1234ZM28.2991 132.064C27.5645 131.976 33.0187 133.175 31.59 132.814C31.2752 132.746 28.9916 132.232 28.2991 132.064ZM50.722 130.874C50.9287 130.633 50.5997 130.994 50.2011 131.352C49.8039 131.718 49.3355 132.041 49.349 132.057C49.3703 132.118 50.6822 130.981 50.722 130.874ZM109.731 65.6513C109.727 65.5192 109.581 63.4641 109.573 63.4055C109.55 62.0412 109.974 68.7781 109.731 65.6513ZM61.3755 101.462C60.8646 101.364 60.3345 101.391 60.2135 101.413C60.0731 101.435 60.3998 101.386 60.7728 101.413C61.5447 101.463 62.3119 101.725 62.9845 101.945C64.3288 102.417 65.3332 102.65 64.379 102.366C64.3456 102.382 61.8611 101.49 61.3755 101.462ZM69.6201 100.526C69.2119 100.996 67.3332 102.249 67.3277 102.186C67.3147 102.209 67.8369 101.977 68.3974 101.573C68.9567 101.181 69.5335 100.641 69.6201 100.526ZM70.8773 60.1613C70.9873 60.1469 70.6092 60.2936 69.9957 60.5194C68.9563 60.9016 67.2335 61.5174 66.4697 61.8067C66.2217 61.8409 68.4739 61.0303 69.9837 60.4866C70.3425 60.3571 70.6518 60.245 70.8773 60.1613ZM92.8609 54.8491C91.8419 54.8726 90.9032 54.8958 90.0377 54.9172C85.0494 55.1171 82.9471 56.2053 83.1431 56.0248C83.3679 56.0094 85.8352 54.9553 90.0365 54.8652C91.1798 54.8415 92.4345 54.8179 93.7933 54.7992C93.8132 54.8416 93.8487 54.8267 92.8609 54.8491ZM74.0837 59.0471C74.6005 58.8165 76.2759 58.2344 77.4073 57.8485C77.2211 57.9413 74.8954 58.746 74.0837 59.0471ZM20.2597 135.04C20.1768 134.925 20.0701 134.784 19.9168 134.491C19.8403 134.334 19.745 134.156 19.6529 133.777C19.6101 133.579 19.5629 133.333 19.5937 132.946C19.6186 132.58 19.7852 132.016 20.1371 131.591C20.9036 130.718 21.5592 130.71 21.884 130.643C22.2394 130.602 22.4536 130.62 22.6487 130.636C23.0288 130.673 23.2976 130.735 23.5546 130.798C25.0251 131.171 26.685 131.608 26.1868 131.502C26.094 131.483 24.736 131.149 23.5429 130.846C23.1745 130.763 22.8649 130.659 22.1561 130.665C21.9662 130.674 21.7415 130.687 21.399 130.789C21.0784 130.888 20.5265 131.12 20.0904 131.716C19.6537 132.315 19.6007 132.972 19.6232 133.321C19.6475 133.697 19.7157 133.901 19.7711 134.072C20.0003 134.683 20.1269 134.801 20.2045 134.942C20.2813 135.061 20.3005 135.092 20.2597 135.04ZM109.583 64.3751C109.57 64.7288 109.144 60.1517 109.079 59.8081C108.973 58.3922 109.587 63.9972 109.583 64.3751ZM50.0461 68.0518C49.288 68.3966 47.0686 69.2217 45.65 69.7685C46.2804 69.4785 48.8407 68.5127 50.0461 68.0518ZM60.3211 64.1842C60.2335 64.2189 58.2428 64.9663 58.1587 64.996C56.5161 65.5639 62.1339 63.455 60.3211 64.1842ZM58.781 58.0457C58.7876 58.1168 58.9002 59.7182 58.9026 59.7758C58.9577 61.211 58.6199 56.3995 58.781 58.0457Z" fill="white"/>
</svg>
